AnekLatin-ExpandedExtraBold.ufo
<glyph name="colon" format="2">
  <advance width="624"/>
  <unicode hex="003A"/>
  <outline>
    <contour>
      <point x="312" y="-34" type="curve" smooth="yes"/>
      <point x="461" y="-34"/>
      <point x="529" y="39"/>
      <point x="529" y="157" type="curve" smooth="yes"/>
      <point x="529" y="162" type="line" smooth="yes"/>
      <point x="529" y="281"/>
      <point x="461" y="356"/>
      <point x="312" y="356" type="curve" smooth="yes"/>
      <point x="162" y="356"/>
      <point x="95" y="281"/>
      <point x="95" y="162" type="curve" smooth="yes"/>
      <point x="95" y="157" type="line" smooth="yes"/>
      <point x="95" y="39"/>
      <point x="162" y="-34"/>
    </contour>
    <contour>
      <point x="312" y="557" type="curve" smooth="yes"/>
      <point x="461" y="557"/>
      <point x="529" y="630"/>
      <point x="529" y="748" type="curve" smooth="yes"/>
      <point x="529" y="753" type="line" smooth="yes"/>
      <point x="529" y="872"/>
      <point x="461" y="947"/>
      <point x="312" y="947" type="curve" smooth="yes"/>
      <point x="162" y="947"/>
      <point x="95" y="872"/>
      <point x="95" y="753" type="curve" smooth="yes"/>
      <point x="95" y="748" type="line" smooth="yes"/>
      <point x="95" y="630"/>
      <point x="162" y="557"/>
    </contour>
  </outline>
</glyph>
<glyph name="sterling" format="2">
  <advance width="1469"/>
  <unicode hex="00A3"/>
  <outline>
    <contour>
      <point x="90" y="519" type="line"/>
      <point x="1258" y="519" type="line"/>
      <point x="1277" y="763" type="line"/>
      <point x="109" y="763" type="line"/>
    </contour>
    <contour>
      <point x="520" y="322" type="line"/>
      <point x="520" y="334" type="line"/>
      <point x="698" y="368"/>
      <point x="740" y="431"/>
      <point x="740" y="534" type="curve" smooth="yes"/>
      <point x="740" y="619"/>
      <point x="664" y="732"/>
      <point x="664" y="840" type="curve" smooth="yes"/>
      <point x="664" y="932"/>
      <point x="703" y="982"/>
      <point x="935" y="982" type="curve" smooth="yes"/>
      <point x="1071" y="982"/>
      <point x="1198" y="965"/>
      <point x="1329" y="939" type="curve"/>
      <point x="1295" y="1267" type="line"/>
      <point x="1162" y="1298"/>
      <point x="993" y="1314"/>
      <point x="841" y="1314" type="curve" smooth="yes"/>
      <point x="423" y="1314"/>
      <point x="228" y="1178"/>
      <point x="228" y="898" type="curve" smooth="yes"/>
      <point x="228" y="752"/>
      <point x="315" y="565"/>
      <point x="315" y="456" type="curve" smooth="yes"/>
      <point x="315" y="385"/>
      <point x="287" y="345"/>
      <point x="197" y="321" type="curve" smooth="yes"/>
      <point x="95" y="302" type="line"/>
      <point x="95" y="0" type="line"/>
      <point x="1409" y="0" type="line"/>
      <point x="1409" y="322" type="line"/>
    </contour>
  </outline>
</glyph>
<glyph name="eth" format="2">
  <advance width="1429"/>
  <unicode hex="00F0"/>
  <outline>
    <contour>
      <point x="711" y="-39" type="curve" smooth="yes"/>
      <point x="1134" y="-39"/>
      <point x="1361" y="144"/>
      <point x="1361" y="483" type="curve"/>
      <point x="1361" y="505" type="line"/>
      <point x="1361" y="837"/>
      <point x="1140" y="1062"/>
      <point x="784" y="1314" type="curve"/>
      <point x="285" y="1314" type="line"/>
      <point x="285" y="1314" type="line"/>
      <point x="632" y="1061"/>
      <point x="904" y="884"/>
      <point x="936" y="694" type="curve"/>
      <point x="943" y="639"/>
      <point x="951" y="583"/>
      <point x="958" y="528" type="curve"/>
      <point x="958" y="498"/>
      <point x="958" y="469"/>
      <point x="958" y="439" type="curve"/>
      <point x="958" y="325"/>
      <point x="866" y="265"/>
      <point x="711" y="265" type="curve" smooth="yes"/>
      <point x="559" y="265"/>
      <point x="467" y="325"/>
      <point x="467" y="439" type="curve"/>
      <point x="467" y="456" type="line" smooth="yes"/>
      <point x="467" y="566"/>
      <point x="559" y="627"/>
      <point x="703" y="627" type="curve" smooth="yes"/>
      <point x="863" y="627"/>
      <point x="953" y="567"/>
      <point x="958" y="453" type="curve"/>
      <point x="1048" y="760" type="line"/>
      <point x="895" y="760" type="line"/>
      <point x="822" y="859"/>
      <point x="711" y="904"/>
      <point x="542" y="904" type="curve" smooth="yes"/>
      <point x="256" y="904"/>
      <point x="68" y="742"/>
      <point x="68" y="459" type="curve" smooth="yes"/>
      <point x="68" y="442" type="line"/>
      <point x="68" y="131"/>
      <point x="296" y="-39"/>
    </contour>
    <contour>
      <point x="246" y="955" type="line"/>
      <point x="1264" y="1122" type="line"/>
      <point x="1264" y="1278" type="line"/>
      <point x="246" y="1114" type="line"/>
    </contour>
  </outline>
</glyph>
<glyph name="divide" format="2">
  <advance width="1322"/>
  <unicode hex="00F7"/>
  <outline>
    <contour>
      <point x="115" y="438" type="line"/>
      <point x="1207" y="438" type="line"/>
      <point x="1207" y="740" type="line"/>
      <point x="115" y="740" type="line"/>
    </contour>
    <contour>
      <point x="663" y="11" type="curve" smooth="yes"/>
      <point x="797" y="11"/>
      <point x="859" y="77"/>
      <point x="859" y="183" type="curve" smooth="yes"/>
      <point x="859" y="188" type="line" smooth="yes"/>
      <point x="859" y="295"/>
      <point x="797" y="362"/>
      <point x="663" y="362" type="curve" smooth="yes"/>
      <point x="528" y="362"/>
      <point x="468" y="295"/>
      <point x="468" y="188" type="curve" smooth="yes"/>
      <point x="468" y="183" type="line" smooth="yes"/>
      <point x="468" y="77"/>
      <point x="528" y="11"/>
    </contour>
    <contour>
      <point x="663" y="815" type="curve" smooth="yes"/>
      <point x="797" y="815"/>
      <point x="859" y="881"/>
      <point x="859" y="987" type="curve" smooth="yes"/>
      <point x="859" y="992" type="line" smooth="yes"/>
      <point x="859" y="1099"/>
      <point x="797" y="1166"/>
      <point x="663" y="1166" type="curve" smooth="yes"/>
      <point x="528" y="1166"/>
      <point x="468" y="1099"/>
      <point x="468" y="992" type="curve" smooth="yes"/>
      <point x="468" y="987" type="line" smooth="yes"/>
      <point x="468" y="881"/>
      <point x="528" y="815"/>
    </contour>
  </outline>
</glyph>
<glyph name="dcroat" format="2">
  <advance width="1486"/>
  <unicode hex="0111"/>
  <anchor x="743" y="0" name="bottom"/>
  <anchor x="743" y="482" name="center"/>
  <anchor x="743" y="1314" name="top"/>
  <anchor x="1466" y="1314" name="topright"/>
  <outline>
    <contour>
      <point x="579" y="1055" type="line"/>
      <point x="1486" y="1055" type="line"/>
      <point x="1486" y="1217" type="line"/>
      <point x="579" y="1217" type="line"/>
    </contour>
    <component base="d"/>
  </outline>
</glyph>
<glyph name="eogonek" format="2">
  <advance width="1355"/>
  <unicode hex="0119"/>
  <anchor x="693" y="0" name="bottom"/>
  <anchor x="1205" y="10" name="ogonek"/>
  <anchor x="693" y="963" name="top"/>
  <outline>
    <contour>
      <point x="999" y="-377" type="curve" smooth="yes"/>
      <point x="1076" y="-377"/>
      <point x="1135" y="-370"/>
      <point x="1199" y="-350" type="curve"/>
      <point x="1239" y="-118" type="line"/>
      <point x="1190" y="-128"/>
      <point x="1141" y="-133"/>
      <point x="1093" y="-133" type="curve" smooth="yes"/>
      <point x="1018" y="-133"/>
      <point x="980" y="-120"/>
      <point x="980" y="-77" type="curve"/>
      <point x="980" y="-77" type="line"/>
      <point x="980" y="-42"/>
      <point x="1010" y="-19"/>
      <point x="1063" y="-5" type="curve"/>
      <point x="1063" y="7" type="line"/>
      <point x="871" y="-13" type="line"/>
      <point x="871" y="-47" type="line"/>
      <point x="757" y="-68"/>
      <point x="710" y="-119"/>
      <point x="710" y="-204" type="curve"/>
      <point x="710" y="-206" type="line" smooth="yes"/>
      <point x="710" y="-323"/>
      <point x="827" y="-377"/>
    </contour>
    <component base="e"/>
  </outline>
</glyph>
<glyph name="Hbar" format="2">
  <advance width="1718"/>
  <unicode hex="0126"/>
  <anchor x="859" y="0" name="bottom"/>
  <anchor x="859" y="639" name="center"/>
  <anchor x="859" y="1278" name="top"/>
  <anchor x="20" y="1278" name="topleft"/>
  <outline>
    <contour>
      <point x="36" y="955" type="line"/>
      <point x="1682" y="955" type="line"/>
      <point x="1682" y="1140" type="line"/>
      <point x="36" y="1140" type="line"/>
    </contour>
    <component base="H"/>
  </outline>
</glyph>
<glyph name="hbar" format="2">
  <advance width="1439"/>
  <unicode hex="0127"/>
  <anchor x="720" y="0" name="bottom"/>
  <anchor x="720" y="646" name="center"/>
  <anchor x="315" y="1314" name="top"/>
  <outline>
    <contour>
      <point x="0" y="1055" type="line"/>
      <point x="894" y="1055" type="line"/>
      <point x="894" y="1217" type="line"/>
      <point x="0" y="1217" type="line"/>
    </contour>
    <component base="h"/>
  </outline>
</glyph>
<glyph name="kgreenlandic" format="2">
  <advance width="1396"/>
  <unicode hex="0138"/>
  <anchor x="698" y="0" name="bottom"/>
  <anchor x="698" y="963" name="top"/>
  <outline>
    <contour>
      <point x="910" y="0" type="line"/>
      <point x="1414" y="0" type="line"/>
      <point x="880" y="540" type="line"/>
      <point x="880" y="476" type="line"/>
      <point x="1377" y="963" type="line"/>
      <point x="889" y="963" type="line"/>
      <point x="526" y="592" type="line"/>
      <point x="485" y="592" type="line"/>
      <point x="485" y="401" type="line"/>
      <point x="526" y="401" type="line"/>
    </contour>
    <contour>
      <point x="118" y="0" type="line"/>
      <point x="515" y="0" type="line"/>
      <point x="515" y="963" type="line"/>
      <point x="118" y="963" type="line"/>
    </contour>
  </outline>
</glyph>
<glyph name="Lslash" format="2">
  <advance width="1372"/>
  <unicode hex="0141"/>
  <anchor x="734" y="0" name="bottom"/>
  <anchor x="696" y="639" name="center"/>
  <anchor x="357" y="1278" name="top"/>
  <anchor x="855" y="1278" name="topright"/>
  <outline>
    <contour>
      <point x="889" y="986" type="line"/>
      <point x="0" y="686" type="line"/>
      <point x="0" y="482" type="line"/>
      <point x="889" y="782" type="line"/>
    </contour>
    <component base="L" xOffset="20"/>
  </outline>
</glyph>
<glyph name="lslash" format="2">
  <advance width="633"/>
  <unicode hex="0142"/>
  <anchor x="317" y="0" name="bottom"/>
  <anchor x="317" y="646" name="center"/>
  <anchor x="317" y="1314" name="top"/>
  <anchor x="613" y="1314" name="topright"/>
  <outline>
    <contour>
      <point x="-22" y="373" type="line"/>
      <point x="655" y="736" type="line"/>
      <point x="655" y="973" type="line"/>
      <point x="-22" y="610" type="line"/>
    </contour>
    <component base="l"/>
  </outline>
</glyph>
<glyph name="Eng" format="2">
  <advance width="1718"/>
  <unicode hex="014A"/>
  <outline>
    <contour>
      <point x="134" y="0" type="line"/>
      <point x="533" y="0" type="line"/>
      <point x="533" y="450" type="line"/>
      <point x="522" y="893" type="line"/>
      <point x="540" y="893" type="line"/>
      <point x="1183" y="5" type="line"/>
      <point x="1464" y="6" type="line"/>
      <point x="1584" y="115" type="line"/>
      <point x="1584" y="1278" type="line"/>
      <point x="1185" y="1278" type="line"/>
      <point x="1185" y="863" type="line"/>
      <point x="1192" y="576" type="line"/>
      <point x="1174" y="576" type="line"/>
      <point x="690" y="1278" type="line"/>
      <point x="134" y="1278" type="line"/>
    </contour>
    <contour>
      <point x="1144" y="-363" type="curve" smooth="yes"/>
      <point x="1480" y="-363"/>
      <point x="1584" y="-174"/>
      <point x="1584" y="92" type="curve" smooth="yes"/>
      <point x="1584" y="203" type="line"/>
      <point x="1189" y="203" type="line"/>
      <point x="1189" y="105" type="line" smooth="yes"/>
      <point x="1189" y="7"/>
      <point x="1161" y="-54"/>
      <point x="1024" y="-54" type="curve" smooth="yes"/>
      <point x="993" y="-54"/>
      <point x="966" y="-51"/>
      <point x="939" y="-46" type="curve"/>
      <point x="970" y="-348" type="line"/>
      <point x="1012" y="-357"/>
      <point x="1074" y="-363"/>
    </contour>
  </outline>
</glyph>
<glyph name="eng" format="2">
  <advance width="1439"/>
  <unicode hex="014B"/>
  <outline>
    <contour>
      <point x="934" y="169" type="line"/>
      <point x="1331" y="169" type="line"/>
      <point x="1331" y="575" type="line" smooth="yes"/>
      <point x="1331" y="847"/>
      <point x="1190" y="997"/>
      <point x="919" y="997" type="curve" smooth="yes"/>
      <point x="668" y="997"/>
      <point x="547" y="872"/>
      <point x="514" y="712" type="curve"/>
      <point x="464" y="712" type="line"/>
      <point x="505" y="541" type="line"/>
      <point x="547" y="611"/>
      <point x="611" y="671"/>
      <point x="738" y="671" type="curve" smooth="yes"/>
      <point x="902" y="671"/>
      <point x="934" y="570"/>
      <point x="934" y="468" type="curve" smooth="yes"/>
    </contour>
    <contour>
      <point x="118" y="0" type="line"/>
      <point x="515" y="0" type="line"/>
      <point x="515" y="609" type="line"/>
      <point x="499" y="644" type="line"/>
      <point x="515" y="963" type="line"/>
      <point x="118" y="963" type="line"/>
    </contour>
    <component base="jbottom" xOffset="795"/>
  </outline>
</glyph>
<glyph name="tcaron" format="2">
  <advance width="1053"/>
  <unicode hex="0165"/>
  <anchor x="564" y="0" name="bottom"/>
  <anchor x="527" y="482" name="center"/>
  <anchor x="367" y="1202" name="top"/>
  <anchor x="713" y="1430" name="topright"/>
  <outline>
    <contour>
      <point x="987" y="1430" type="curve"/>
      <point x="710" y="1430" type="line"/>
      <point x="713" y="1400"/>
      <point x="715" y="1374"/>
      <point x="715" y="1345" type="curve" smooth="yes"/>
      <point x="715" y="1236"/>
      <point x="700" y="1148"/>
      <point x="673" y="1066" type="curve"/>
      <point x="883" y="1024" type="line"/>
      <point x="960" y="1120"/>
      <point x="994" y="1227"/>
      <point x="994" y="1354" type="curve" smooth="yes"/>
      <point x="994" y="1381"/>
      <point x="990" y="1410"/>
    </contour>
    <component base="t"/>
  </outline>
</glyph>
<glyph name="Tbar" format="2">
  <advance width="1518"/>
  <unicode hex="0166"/>
  <anchor x="759" y="0" name="bottom"/>
  <anchor x="759" y="639" name="center"/>
  <anchor x="759" y="1278" name="top"/>
  <outline>
    <contour>
      <point x="197" y="428" type="line"/>
      <point x="1322" y="427" type="line"/>
      <point x="1322" y="624" type="line"/>
      <point x="197" y="626" type="line"/>
    </contour>
    <component base="T"/>
  </outline>
</glyph>
<glyph name="tbar" format="2">
  <advance width="1099"/>
  <unicode hex="0167"/>
  <outline>
    <contour>
      <point x="661" y="-28" type="curve" smooth="yes"/>
      <point x="794" y="-28"/>
      <point x="915" y="-7"/>
      <point x="1006" y="30" type="curve"/>
      <point x="1045" y="343" type="line"/>
      <point x="974" y="318"/>
      <point x="871" y="297"/>
      <point x="785" y="297" type="curve" smooth="yes"/>
      <point x="623" y="297"/>
      <point x="589" y="358"/>
      <point x="589" y="461" type="curve" smooth="yes"/>
      <point x="589" y="776" type="line"/>
      <point x="192" y="776" type="line"/>
      <point x="192" y="391" type="line" smooth="yes"/>
      <point x="192" y="135"/>
      <point x="296" y="-28"/>
    </contour>
    <contour>
      <point x="52" y="417" type="line"/>
      <point x="981" y="417" type="line"/>
      <point x="981" y="602" type="line"/>
      <point x="52" y="602" type="line"/>
    </contour>
    <contour>
      <point x="32" y="695" type="line"/>
      <point x="1004" y="695" type="line"/>
      <point x="1040" y="963" type="line"/>
      <point x="32" y="963" type="line"/>
    </contour>
    <contour>
      <point x="201" y="933" type="line"/>
      <point x="580" y="933" type="line"/>
      <point x="593" y="1229" type="line"/>
      <point x="199" y="1202" type="line"/>
    </contour>
  </outline>
</glyph>
<glyph name="Uogonek" format="2">
  <advance width="1692"/>
  <unicode hex="0172"/>
  <anchor x="846" y="0" name="bottom"/>
  <anchor x="1280" y="10" name="ogonek"/>
  <anchor x="846" y="1278" name="top"/>
  <anchor x="1672" y="1278" name="topright"/>
  <outline>
    <contour>
      <point x="1108" y="-377" type="curve" smooth="yes"/>
      <point x="1195" y="-377"/>
      <point x="1261" y="-368"/>
      <point x="1333" y="-344" type="curve"/>
      <point x="1373" y="-109" type="line"/>
      <point x="1316" y="-123"/>
      <point x="1258" y="-130"/>
      <point x="1202" y="-130" type="curve" smooth="yes"/>
      <point x="1124" y="-130"/>
      <point x="1084" y="-117"/>
      <point x="1084" y="-73" type="curve"/>
      <point x="1084" y="-73" type="line"/>
      <point x="1084" y="-38"/>
      <point x="1116" y="-14"/>
      <point x="1168" y="0" type="curve"/>
      <point x="1168" y="21" type="line"/>
      <point x="975" y="-15" type="line"/>
      <point x="975" y="-49" type="line"/>
      <point x="861" y="-70"/>
      <point x="814" y="-118"/>
      <point x="814" y="-204" type="curve"/>
      <point x="814" y="-206" type="line" smooth="yes"/>
      <point x="814" y="-325"/>
      <point x="933" y="-377"/>
    </contour>
    <component base="U"/>
  </outline>
</glyph>
<glyph name="Schwa" format="2">
  <advance width="1644"/>
  <unicode hex="018F"/>
  <anchor x="822" y="0" name="bottom"/>
  <anchor x="822" y="1278" name="top"/>
  <outline>
    <contour>
      <point x="818" y="-45" type="curve" smooth="yes"/>
      <point x="1287" y="-45"/>
      <point x="1562" y="199"/>
      <point x="1562" y="611" type="curve"/>
      <point x="1562" y="627" type="line"/>
      <point x="1562" y="1063"/>
      <point x="1286" y="1322"/>
      <point x="752" y="1322" type="curve" smooth="yes"/>
      <point x="507" y="1322"/>
      <point x="315" y="1281"/>
      <point x="164" y="1211" type="curve"/>
      <point x="127" y="889" type="line"/>
      <point x="291" y="947"/>
      <point x="460" y="993"/>
      <point x="696" y="993" type="curve" smooth="yes"/>
      <point x="1001" y="993"/>
      <point x="1140" y="875"/>
      <point x="1140" y="637" type="curve" smooth="yes"/>
      <point x="1140" y="581" type="line" smooth="yes"/>
      <point x="1140" y="379"/>
      <point x="1038" y="283"/>
      <point x="816" y="283" type="curve" smooth="yes"/>
      <point x="609" y="283"/>
      <point x="488" y="364"/>
      <point x="488" y="528" type="curve"/>
      <point x="488" y="541" type="line"/>
      <point x="394" y="495" type="line"/>
      <point x="1302" y="491" type="line"/>
      <point x="1302" y="757" type="line"/>
      <point x="98" y="757" type="line"/>
      <point x="90" y="714"/>
      <point x="82" y="641"/>
      <point x="82" y="580" type="curve" smooth="yes"/>
      <point x="82" y="564" type="line" smooth="yes"/>
      <point x="82" y="181"/>
      <point x="354" y="-45"/>
    </contour>
  </outline>
</glyph>
<glyph name="florin" format="2">
  <advance width="1140"/>
  <unicode hex="0192"/>
  <outline>
    <contour>
      <point x="55" y="614" type="line"/>
      <point x="1024" y="614" type="line"/>
      <point x="1045" y="917" type="line"/>
      <point x="76" y="917" type="line"/>
    </contour>
    <contour>
      <point x="1100" y="1033" type="curve"/>
      <point x="1078" y="1306" type="line"/>
      <point x="963" y="1341"/>
      <point x="869" y="1354"/>
      <point x="744" y="1354" type="curve" smooth="yes"/>
      <point x="379" y="1354"/>
      <point x="270" y="1208"/>
      <point x="248" y="910" type="curve" smooth="yes"/>
      <point x="157" y="-338" type="line"/>
      <point x="529" y="-338" type="line"/>
      <point x="620" y="908" type="line" smooth="yes"/>
      <point x="628" y="1018"/>
      <point x="667" y="1066"/>
      <point x="834" y="1066" type="curve" smooth="yes"/>
      <point x="929" y="1066"/>
      <point x="997" y="1058"/>
    </contour>
  </outline>
</glyph>
<glyph name="Oogonek" format="2">
  <advance width="1734"/>
  <unicode hex="01EA"/>
  <anchor x="867" y="0" name="bottom"/>
  <anchor x="867" y="639" name="center"/>
  <anchor x="1341" y="10" name="ogonek"/>
  <anchor x="867" y="1278" name="top"/>
  <anchor x="20" y="1278" name="topleft"/>
  <anchor x="1589" y="1278" name="topright"/>
  <outline>
    <contour>
      <point x="1141" y="-377" type="curve" smooth="yes"/>
      <point x="1228" y="-377"/>
      <point x="1294" y="-368"/>
      <point x="1366" y="-344" type="curve"/>
      <point x="1406" y="-109" type="line"/>
      <point x="1349" y="-123"/>
      <point x="1291" y="-130"/>
      <point x="1235" y="-130" type="curve" smooth="yes"/>
      <point x="1157" y="-130"/>
      <point x="1117" y="-117"/>
      <point x="1117" y="-73" type="curve"/>
      <point x="1117" y="-73" type="line"/>
      <point x="1117" y="-38"/>
      <point x="1149" y="-14"/>
      <point x="1201" y="0" type="curve"/>
      <point x="1201" y="20" type="line"/>
      <point x="1008" y="-15" type="line"/>
      <point x="1008" y="-49" type="line"/>
      <point x="894" y="-70"/>
      <point x="847" y="-118"/>
      <point x="847" y="-204" type="curve"/>
      <point x="847" y="-206" type="line" smooth="yes"/>
      <point x="847" y="-325"/>
      <point x="966" y="-377"/>
    </contour>
    <component base="O"/>
  </outline>
</glyph>
<glyph name="oogonek" format="2">
  <advance width="1425"/>
  <unicode hex="01EB"/>
  <anchor x="713" y="0" name="bottom"/>
  <anchor x="713" y="482" name="center"/>
  <anchor x="1081" y="10" name="ogonek"/>
  <anchor x="713" y="963" name="top"/>
  <anchor x="1372" y="963" name="topright"/>
  <outline>
    <contour>
      <point x="922" y="-377" type="curve" smooth="yes"/>
      <point x="999" y="-377"/>
      <point x="1058" y="-370"/>
      <point x="1122" y="-350" type="curve"/>
      <point x="1162" y="-118" type="line"/>
      <point x="1113" y="-128"/>
      <point x="1064" y="-133"/>
      <point x="1016" y="-133" type="curve" smooth="yes"/>
      <point x="941" y="-133"/>
      <point x="903" y="-120"/>
      <point x="903" y="-77" type="curve"/>
      <point x="903" y="-77" type="line"/>
      <point x="903" y="-42"/>
      <point x="935" y="-19"/>
      <point x="987" y="-5" type="curve"/>
      <point x="987" y="4" type="line"/>
      <point x="794" y="-15" type="line"/>
      <point x="794" y="-49" type="line"/>
      <point x="680" y="-70"/>
      <point x="633" y="-118"/>
      <point x="633" y="-204" type="curve"/>
      <point x="633" y="-206" type="line" smooth="yes"/>
      <point x="633" y="-323"/>
      <point x="750" y="-377"/>
    </contour>
    <component base="o"/>
  </outline>
</glyph>
<glyph name="Odieresismacron" format="2">
  <advance width="1734"/>
  <unicode hex="022A"/>
  <anchor x="867" y="0" name="bottom"/>
  <anchor x="867" y="639" name="center"/>
  <anchor x="1341" y="10" name="ogonek"/>
  <anchor x="867" y="1647" name="top"/>
  <anchor x="20" y="1278" name="topleft"/>
  <anchor x="1589" y="1278" name="topright"/>
  <outline>
    <contour>
      <point x="469" y="1778" type="line"/>
      <point x="1265" y="1778" type="line"/>
      <point x="1265" y="2004" type="line"/>
      <point x="469" y="2004" type="line"/>
    </contour>
    <component base="O"/>
    <component base="dieresiscomb.case" xOffset="373"/>
  </outline>
</glyph>
<glyph name="odieresismacron" format="2">
  <advance width="1425"/>
  <unicode hex="022B"/>
  <anchor x="713" y="1700.08" name="top"/>
  <anchor x="713" y="0" name="bottom"/>
  <anchor x="713" y="482" name="center"/>
  <anchor x="1081" y="10" name="ogonek"/>
  <anchor x="1372" y="963" name="topright"/>
  <outline>
    <contour>
      <point x="315" y="1481" type="line"/>
      <point x="1111" y="1481" type="line"/>
      <point x="1111" y="1698" type="line"/>
      <point x="315" y="1698" type="line"/>
    </contour>
    <component base="o"/>
    <component base="dieresiscomb" xOffset="219"/>
  </outline>
</glyph>
<glyph name="Otildemacron" format="2">
  <advance width="1734"/>
  <unicode hex="022C"/>
  <anchor x="867" y="2022" name="top"/>
  <anchor x="867" y="0" name="bottom"/>
  <anchor x="867" y="639" name="center"/>
  <anchor x="1341" y="10" name="ogonek"/>
  <anchor x="20" y="1278" name="topleft"/>
  <anchor x="1589" y="1278" name="topright"/>
  <outline>
    <contour>
      <point x="469" y="1801" type="line"/>
      <point x="1265" y="1801" type="line"/>
      <point x="1265" y="2027" type="line"/>
      <point x="469" y="2027" type="line"/>
    </contour>
    <component base="O"/>
    <component base="tildecomb.case" xOffset="353"/>
  </outline>
</glyph>
<glyph name="otildemacron" format="2">
  <advance width="1425"/>
  <unicode hex="022D"/>
  <anchor x="713" y="1720.08" name="top"/>
  <anchor x="713" y="0" name="bottom"/>
  <anchor x="713" y="482" name="center"/>
  <anchor x="1081" y="10" name="ogonek"/>
  <anchor x="1372" y="963" name="topright"/>
  <outline>
    <contour>
      <point x="315" y="1501" type="line"/>
      <point x="1111" y="1501" type="line"/>
      <point x="1111" y="1718" type="line"/>
      <point x="315" y="1718" type="line"/>
    </contour>
    <component base="o"/>
    <component base="tildecomb" xOffset="199"/>
  </outline>
</glyph>
<glyph name="Odotaccentmacron" format="2">
  <advance width="1734"/>
  <unicode hex="0230"/>
  <anchor x="867" y="0" name="bottom"/>
  <anchor x="867" y="639" name="center"/>
  <anchor x="1341" y="10" name="ogonek"/>
  <anchor x="865" y="1662" name="top"/>
  <anchor x="20" y="1278" name="topleft"/>
  <anchor x="1589" y="1278" name="topright"/>
  <outline>
    <contour>
      <point x="467" y="1793" type="line"/>
      <point x="1263" y="1793" type="line"/>
      <point x="1263" y="2019" type="line"/>
      <point x="467" y="2019" type="line"/>
    </contour>
    <component base="O"/>
    <component base="dotaccentcomb.case" xOffset="565"/>
  </outline>
</glyph>
<glyph name="odotaccentmacron" format="2">
  <advance width="1425"/>
  <unicode hex="0231"/>
  <anchor x="713" y="1707.08" name="top"/>
  <anchor x="713" y="0" name="bottom"/>
  <anchor x="713" y="482" name="center"/>
  <anchor x="1081" y="10" name="ogonek"/>
  <anchor x="1372" y="963" name="topright"/>
  <outline>
    <contour>
      <point x="315" y="1488" type="line"/>
      <point x="1111" y="1488" type="line"/>
      <point x="1111" y="1705" type="line"/>
      <point x="315" y="1705" type="line"/>
    </contour>
    <component base="o"/>
    <component base="dotaccentcomb" xOffset="411"/>
  </outline>
</glyph>
<glyph name="jdotless" format="2">
  <advance width="654"/>
  <unicode hex="0237"/>
  <anchor x="327" y="-338" name="bottom"/>
  <anchor x="327" y="963" name="top"/>
  <outline>
    <contour>
      <point x="139" y="172" type="line"/>
      <point x="536" y="172" type="line"/>
      <point x="536" y="963" type="line"/>
      <point x="139" y="963" type="line"/>
    </contour>
    <component base="jbottom"/>
  </outline>
</glyph>
<glyph name="schwa" format="2">
  <advance width="1358"/>
  <unicode hex="0259"/>
  <outline>
    <contour>
      <point x="675" y="-44" type="curve" smooth="yes"/>
      <point x="1065" y="-44"/>
      <point x="1286" y="144"/>
      <point x="1286" y="472" type="curve" smooth="yes"/>
      <point x="1286" y="491" type="line" smooth="yes"/>
      <point x="1286" y="819"/>
      <point x="1083" y="1002"/>
      <point x="658" y="1002" type="curve" smooth="yes"/>
      <point x="446" y="1002"/>
      <point x="274" y="969"/>
      <point x="123" y="915" type="curve"/>
      <point x="86" y="646" type="line"/>
      <point x="260" y="692"/>
      <point x="429" y="716"/>
      <point x="589" y="716" type="curve" smooth="yes"/>
      <point x="888" y="716"/>
      <point x="914" y="605"/>
      <point x="914" y="538" type="curve" smooth="yes"/>
      <point x="914" y="482" type="line"/>
      <point x="917" y="456" type="line"/>
      <point x="917" y="415" type="line" smooth="yes"/>
      <point x="917" y="299"/>
      <point x="837" y="226"/>
      <point x="675" y="226" type="curve" smooth="yes"/>
      <point x="508" y="226"/>
      <point x="430" y="295"/>
      <point x="430" y="413" type="curve" smooth="yes"/>
      <point x="430" y="456"/>
      <point x="435" y="530"/>
      <point x="444" y="586" type="curve"/>
      <point x="81" y="586" type="line"/>
      <point x="74" y="550"/>
      <point x="68" y="491"/>
      <point x="68" y="441" type="curve"/>
      <point x="68" y="427" type="line"/>
      <point x="68" y="141"/>
      <point x="273" y="-44"/>
    </contour>
    <contour>
      <point x="157" y="372" type="line"/>
      <point x="1106" y="372" type="line"/>
      <point x="1106" y="586" type="line"/>
      <point x="157" y="586" type="line"/>
    </contour>
  </outline>
</glyph>
<glyph name="primemod" format="2">
  <advance width="485"/>
  <unicode hex="02B9"/>
  <outline>
    <contour>
      <point x="377" y="836" type="line"/>
      <point x="417" y="1314" type="line"/>
      <point x="68" y="1314" type="line"/>
      <point x="104" y="836" type="line"/>
    </contour>
  </outline>
</glyph>
<glyph name="doubleprimemod" format="2">
  <advance width="936"/>
  <unicode hex="02BA"/>
  <outline>
    <contour>
      <point x="555" y="836" type="line"/>
      <point x="828" y="836" type="line"/>
      <point x="868" y="1314" type="line"/>
      <point x="519" y="1314" type="line"/>
    </contour>
    <contour>
      <point x="104" y="836" type="line"/>
      <point x="377" y="836" type="line"/>
      <point x="417" y="1314" type="line"/>
      <point x="68" y="1314" type="line"/>
    </contour>
  </outline>
</glyph>
<glyph name="commaturnedmod" format="2">
  <advance width="602"/>
  <unicode hex="02BB"/>
  <anchor x="301" y="963" name="_top"/>
  <anchor x="301" y="1373" name="top"/>
  <outline>
    <contour>
      <point x="127" y="1074" type="curve"/>
      <point x="464" y="1074" type="line"/>
      <point x="461" y="1105"/>
      <point x="459" y="1131"/>
      <point x="459" y="1162" type="curve" smooth="yes"/>
      <point x="459" y="1279"/>
      <point x="480" y="1374"/>
      <point x="522" y="1461" type="curve"/>
      <point x="261" y="1512" type="line"/>
      <point x="161" y="1407"/>
      <point x="120" y="1297"/>
      <point x="120" y="1159" type="curve" smooth="yes"/>
      <point x="120" y="1132"/>
      <point x="123" y="1096"/>
    </contour>
  </outline>
</glyph>
<glyph name="apostrophemod" format="2">
  <advance width="581"/>
  <unicode hex="02BC"/>
  <outline>
    <contour>
      <point x="473" y="1278" type="curve"/>
      <point x="144" y="1278" type="line"/>
      <point x="148" y="1242"/>
      <point x="150" y="1211"/>
      <point x="150" y="1177" type="curve" smooth="yes"/>
      <point x="150" y="1047"/>
      <point x="132" y="943"/>
      <point x="100" y="846" type="curve"/>
      <point x="349" y="796" type="line"/>
      <point x="441" y="910"/>
      <point x="481" y="1037"/>
      <point x="481" y="1188" type="curve" smooth="yes"/>
      <point x="481" y="1219"/>
      <point x="477" y="1254"/>
    </contour>
  </outline>
</glyph>
<glyph name="ringhalfright" format="2">
  <advance width="464"/>
  <unicode hex="02BE"/>
  <anchor x="100" y="963" name="_top"/>
  <anchor x="100" y="1403" name="top"/>
  <outline>
    <contour>
      <point x="100" y="1309" type="line"/>
      <point x="156" y="1309"/>
      <point x="183" y="1288"/>
      <point x="183" y="1250" type="curve" smooth="yes"/>
      <point x="183" y="1246" type="line" smooth="yes"/>
      <point x="183" y="1208"/>
      <point x="156" y="1186"/>
      <point x="100" y="1186" type="curve"/>
      <point x="100" y="1050" type="line"/>
      <point x="285" y="1050"/>
      <point x="364" y="1129"/>
      <point x="364" y="1244" type="curve" smooth="yes"/>
      <point x="364" y="1251" type="line" smooth="yes"/>
      <point x="364" y="1367"/>
      <point x="285" y="1445"/>
      <point x="100" y="1445" type="curve"/>
    </contour>
  </outline>
</glyph>
<glyph name="ringhalfleft" format="2">
  <advance width="464"/>
  <unicode hex="02BF"/>
  <anchor x="364" y="963" name="_top"/>
  <anchor x="364" y="1403" name="top"/>
  <outline>
    <contour>
      <point x="364" y="1309" type="curve"/>
      <point x="364" y="1445" type="line"/>
      <point x="179" y="1445"/>
      <point x="100" y="1367"/>
      <point x="100" y="1251" type="curve" smooth="yes"/>
      <point x="100" y="1244" type="line" smooth="yes"/>
      <point x="100" y="1129"/>
      <point x="179" y="1050"/>
      <point x="364" y="1050" type="curve"/>
      <point x="364" y="1186" type="line"/>
      <point x="308" y="1186"/>
      <point x="281" y="1208"/>
      <point x="281" y="1246" type="curve" smooth="yes"/>
      <point x="281" y="1250" type="line" smooth="yes"/>
      <point x="281" y="1288"/>
      <point x="308" y="1309"/>
    </contour>
  </outline>
</glyph>
<glyph name="verticallinemod" format="2">
  <advance width="517"/>
  <unicode hex="02C8"/>
  <anchor x="259" y="963" name="_top"/>
  <anchor x="259" y="1383" name="top"/>
  <outline>
    <contour>
      <point x="100" y="1075" type="line"/>
      <point x="417" y="1075" type="line"/>
      <point x="417" y="1483" type="line"/>
      <point x="100" y="1483" type="line"/>
    </contour>
  </outline>
</glyph>
<glyph name="brevecomb" format="2">
  <unicode hex="0306"/>
  <anchor x="509" y="963" name="_top"/>
  <anchor x="509" y="1374" name="top"/>
  <outline>
    <contour>
      <point x="508" y="1054" type="curve" smooth="yes"/>
      <point x="793" y="1054"/>
      <point x="904" y="1185"/>
      <point x="909" y="1385" type="curve"/>
      <point x="650" y="1385" type="line"/>
      <point x="643" y="1316"/>
      <point x="600" y="1275"/>
      <point x="508" y="1275" type="curve" smooth="yes"/>
      <point x="413" y="1275"/>
      <point x="374" y="1320"/>
      <point x="367" y="1385" type="curve"/>
      <point x="108" y="1385" type="line"/>
      <point x="113" y="1185"/>
      <point x="228" y="1054"/>
    </contour>
  </outline>
</glyph>
<glyph name="dieresiscomb" format="2">
  <unicode hex="0308"/>
  <anchor x="494" y="963" name="_top"/>
  <anchor x="494" y="1354" name="top"/>
  <outline>
    <contour>
      <point x="281" y="1056" type="curve" smooth="yes"/>
      <point x="406" y="1056"/>
      <point x="464" y="1120"/>
      <point x="464" y="1218" type="curve" smooth="yes"/>
      <point x="464" y="1224" type="line" smooth="yes"/>
      <point x="464" y="1323"/>
      <point x="406" y="1389"/>
      <point x="281" y="1389" type="curve" smooth="yes"/>
      <point x="158" y="1389"/>
      <point x="100" y="1323"/>
      <point x="100" y="1224" type="curve" smooth="yes"/>
      <point x="100" y="1218" type="line" smooth="yes"/>
      <point x="100" y="1120"/>
      <point x="158" y="1056"/>
    </contour>
    <contour>
      <point x="707" y="1056" type="curve" smooth="yes"/>
      <point x="829" y="1056"/>
      <point x="888" y="1120"/>
      <point x="888" y="1218" type="curve" smooth="yes"/>
      <point x="888" y="1224" type="line" smooth="yes"/>
      <point x="888" y="1323"/>
      <point x="829" y="1389"/>
      <point x="707" y="1389" type="curve" smooth="yes"/>
      <point x="584" y="1389"/>
      <point x="525" y="1323"/>
      <point x="525" y="1224" type="curve" smooth="yes"/>
      <point x="525" y="1218" type="line" smooth="yes"/>
      <point x="525" y="1120"/>
      <point x="582" y="1056"/>
    </contour>
  </outline>
</glyph>
<glyph name="hookabovecomb" format="2">
  <unicode hex="0309"/>
  <anchor x="225" y="963" name="_top"/>
  <anchor x="256" y="1444" name="top"/>
  <outline>
    <contour>
      <point x="132" y="1059" type="curve"/>
      <point x="97" y="1227" type="line"/>
      <point x="186" y="1243"/>
      <point x="216" y="1255"/>
      <point x="216" y="1290" type="curve" smooth="yes"/>
      <point x="216" y="1312"/>
      <point x="200" y="1323"/>
      <point x="157" y="1323" type="curve" smooth="yes"/>
      <point x="123" y="1323"/>
      <point x="86" y="1316"/>
      <point x="53" y="1306" type="curve"/>
      <point x="67" y="1480" type="line"/>
      <point x="114" y="1494"/>
      <point x="173" y="1506"/>
      <point x="249" y="1506" type="curve" smooth="yes"/>
      <point x="394" y="1506"/>
      <point x="484" y="1441"/>
      <point x="484" y="1312" type="curve" smooth="yes"/>
      <point x="484" y="1159"/>
      <point x="361" y="1083"/>
    </contour>
  </outline>
</glyph>
<glyph name="hungarumlautcomb" format="2">
  <unicode hex="030B"/>
  <anchor x="459" y="963" name="_top"/>
  <anchor x="637" y="1376" name="top"/>
  <outline>
    <contour>
      <point x="696" y="1385" type="line"/>
      <point x="529" y="1077" type="line"/>
      <point x="529" y="1073" type="line"/>
      <point x="812" y="1073" type="line"/>
      <point x="1050" y="1376" type="line"/>
      <point x="1050" y="1385" type="line"/>
    </contour>
    <contour>
      <point x="265" y="1385" type="line"/>
      <point x="100" y="1077" type="line"/>
      <point x="100" y="1073" type="line"/>
      <point x="386" y="1073" type="line"/>
      <point x="616" y="1376" type="line"/>
      <point x="616" y="1385" type="line"/>
    </contour>
  </outline>
</glyph>
<glyph name="caroncomb" format="2">
  <unicode hex="030C"/>
  <anchor x="531" y="963" name="_top"/>
  <anchor x="531" y="1370" name="top"/>
  <outline>
    <contour>
      <point x="331" y="1073" type="line"/>
      <point x="730" y="1073" type="line"/>
      <point x="962" y="1376" type="line"/>
      <point x="962" y="1385" type="line"/>
      <point x="663" y="1385" type="line"/>
      <point x="536" y="1255" type="line"/>
      <point x="525" y="1255" type="line"/>
      <point x="401" y="1385" type="line"/>
      <point x="100" y="1385" type="line"/>
      <point x="100" y="1376" type="line"/>
    </contour>
  </outline>
</glyph>
<glyph name="dblgravecomb" format="2">
  <unicode hex="030F"/>
  <anchor x="691" y="963" name="_top"/>
  <anchor x="513" y="1376" name="top"/>
  <outline>
    <contour>
      <point x="454" y="1385" type="line"/>
      <point x="100" y="1385" type="line"/>
      <point x="100" y="1376" type="line"/>
      <point x="338" y="1073" type="line"/>
      <point x="621" y="1073" type="line"/>
      <point x="621" y="1077" type="line"/>
    </contour>
    <contour>
      <point x="885" y="1385" type="line"/>
      <point x="534" y="1385" type="line"/>
      <point x="534" y="1376" type="line"/>
      <point x="764" y="1073" type="line"/>
      <point x="1050" y="1073" type="line"/>
      <point x="1050" y="1077" type="line"/>
    </contour>
  </outline>
</glyph>
<glyph name="breveinvertedcomb" format="2">
  <unicode hex="0311"/>
  <anchor x="508.5" y="963" name="_top"/>
  <anchor x="509" y="1374" name="top"/>
  <outline>
    <contour>
      <point x="508" y="1404" type="curve" smooth="yes"/>
      <point x="228" y="1404"/>
      <point x="113" y="1273"/>
      <point x="108" y="1073" type="curve"/>
      <point x="367" y="1073" type="line"/>
      <point x="374" y="1138"/>
      <point x="413" y="1183"/>
      <point x="508" y="1183" type="curve" smooth="yes"/>
      <point x="600" y="1183"/>
      <point x="643" y="1142"/>
      <point x="650" y="1073" type="curve"/>
      <point x="909" y="1073" type="line"/>
      <point x="904" y="1273"/>
      <point x="793" y="1404"/>
    </contour>
  </outline>
</glyph>
<glyph name="commaturnedabovecomb" format="2">
  <unicode hex="0312"/>
  <anchor x="301" y="963" name="_top"/>
  <anchor x="301" y="1457" name="top"/>
  <outline>
    <contour>
      <point x="131" y="1073" type="curve"/>
      <point x="461" y="1073" type="line"/>
      <point x="458" y="1104"/>
      <point x="456" y="1130"/>
      <point x="456" y="1161" type="curve" smooth="yes"/>
      <point x="456" y="1278"/>
      <point x="476" y="1373"/>
      <point x="518" y="1460" type="curve"/>
      <point x="262" y="1511" type="line"/>
      <point x="164" y="1406"/>
      <point x="124" y="1296"/>
      <point x="124" y="1158" type="curve" smooth="yes"/>
      <point x="124" y="1131"/>
      <point x="127" y="1095"/>
    </contour>
  </outline>
</glyph>
<glyph name="horncomb" format="2">
  <unicode hex="031B"/>
  <anchor x="432" y="963" name="_topright"/>
  <anchor x="553" y="1205" name="topright"/>
  <outline>
    <contour>
      <point x="191" y="812" type="line"/>
      <point x="430" y="847"/>
      <point x="533" y="930"/>
      <point x="533" y="1097" type="curve" smooth="yes"/>
      <point x="533" y="1137"/>
      <point x="527" y="1176"/>
      <point x="517" y="1205" type="curve"/>
      <point x="184" y="1205" type="line"/>
      <point x="189" y="1178"/>
      <point x="193" y="1146"/>
      <point x="193" y="1116" type="curve" smooth="yes"/>
      <point x="193" y="1042"/>
      <point x="168" y="991"/>
      <point x="100" y="963" type="curve"/>
    </contour>
  </outline>
</glyph>
<glyph name="dotbelowcomb" format="2">
  <unicode hex="0323"/>
  <anchor x="302" y="0" name="_bottom"/>
  <anchor x="302" y="-439" name="bottom"/>
  <outline>
    <contour>
      <point x="301" y="-439" type="curve" smooth="yes"/>
      <point x="440" y="-439"/>
      <point x="504" y="-373"/>
      <point x="504" y="-272" type="curve" smooth="yes"/>
      <point x="504" y="-265" type="line" smooth="yes"/>
      <point x="504" y="-162"/>
      <point x="440" y="-94"/>
      <point x="301" y="-94" type="curve" smooth="yes"/>
      <point x="164" y="-94"/>
      <point x="100" y="-162"/>
      <point x="100" y="-265" type="curve" smooth="yes"/>
      <point x="100" y="-272" type="line" smooth="yes"/>
      <point x="100" y="-373"/>
      <point x="164" y="-439"/>
    </contour>
  </outline>
</glyph>
<glyph name="commaaccentcomb" format="2">
  <unicode hex="0326"/>
  <anchor x="301" y="0" name="_bottom"/>
  <anchor x="301" y="-542" name="bottom"/>
  <outline>
    <contour>
      <point x="475" y="-104" type="curve"/>
      <point x="138" y="-104" type="line"/>
      <point x="141" y="-135"/>
      <point x="143" y="-161"/>
      <point x="143" y="-192" type="curve" smooth="yes"/>
      <point x="143" y="-309"/>
      <point x="122" y="-404"/>
      <point x="80" y="-491" type="curve"/>
      <point x="341" y="-542" type="line"/>
      <point x="441" y="-437"/>
      <point x="482" y="-327"/>
      <point x="482" y="-189" type="curve" smooth="yes"/>
      <point x="482" y="-162"/>
      <point x="479" y="-126"/>
    </contour>
  </outline>
</glyph>
<glyph name="ogonekcomb" format="2">
  <unicode hex="0328"/>
  <anchor x="697" y="-1" name="_ogonek"/>
  <outline>
    <contour>
      <point x="490" y="-388" type="curve" smooth="yes"/>
      <point x="562" y="-388"/>
      <point x="617" y="-381"/>
      <point x="676" y="-361" type="curve"/>
      <point x="716" y="-129" type="line"/>
      <point x="670" y="-139"/>
      <point x="624" y="-144"/>
      <point x="580" y="-144" type="curve" smooth="yes"/>
      <point x="512" y="-144"/>
      <point x="477" y="-131"/>
      <point x="477" y="-89" type="curve"/>
      <point x="477" y="-89" type="line"/>
      <point x="477" y="-49"/>
      <point x="522" y="-19"/>
      <point x="618" y="-10" type="curve"/>
      <point x="618" y="22" type="line"/>
      <point x="384" y="22" type="line"/>
      <point x="384" y="-20" type="line"/>
      <point x="278" y="-42"/>
      <point x="207" y="-94"/>
      <point x="207" y="-202" type="curve"/>
      <point x="207" y="-204" type="line" smooth="yes"/>
      <point x="207" y="-331"/>
      <point x="321" y="-388"/>
    </contour>
  </outline>
</glyph>
<glyph name="strokeshortcomb" format="2">
  <unicode hex="0335"/>
  <anchor x="532" y="642" name="_center"/>
  <outline>
    <contour>
      <point x="101" y="547" type="line"/>
      <point x="962" y="546" type="line"/>
      <point x="962" y="736" type="line"/>
      <point x="101" y="738" type="line"/>
    </contour>
  </outline>
</glyph>
<glyph name="pi" format="2">
  <advance width="1495"/>
  <unicode hex="03C0"/>
  <outline>
    <contour>
      <point x="64" y="660" type="line"/>
      <point x="1391" y="660" type="line"/>
      <point x="1431" y="963" type="line"/>
      <point x="64" y="963" type="line"/>
    </contour>
    <contour>
      <point x="224" y="0" type="line"/>
      <point x="621" y="0" type="line"/>
      <point x="621" y="776" type="line"/>
      <point x="224" y="776" type="line"/>
    </contour>
    <contour>
      <point x="850" y="0" type="line"/>
      <point x="1247" y="0" type="line"/>
      <point x="1247" y="776" type="line"/>
      <point x="850" y="776" type="line"/>
    </contour>
  </outline>
</glyph>
<glyph name="llinebelow" format="2">
  <advance width="633"/>
  <unicode hex="1E3B"/>
  <anchor x="316.68" y="-357" name="bottom"/>
  <anchor x="317" y="646" name="center"/>
  <anchor x="317" y="1314" name="top"/>
  <anchor x="613" y="1314" name="topright"/>
  <outline>
    <contour>
      <point x="-26" y="-357" type="line"/>
      <point x="659" y="-357" type="line"/>
      <point x="659" y="-131" type="line"/>
      <point x="-26" y="-131" type="line"/>
    </contour>
    <component base="l"/>
  </outline>
</glyph>
<glyph name="Otildedieresis" format="2">
  <advance width="1734"/>
  <unicode hex="1E4E"/>
  <anchor x="867" y="2027" name="top"/>
  <anchor x="867" y="0" name="bottom"/>
  <anchor x="867" y="639" name="center"/>
  <anchor x="1341" y="10" name="ogonek"/>
  <anchor x="20" y="1278" name="topleft"/>
  <anchor x="1589" y="1278" name="topright"/>
  <outline>
    <contour>
      <point x="654" y="1763" type="curve" smooth="yes"/>
      <point x="779" y="1763"/>
      <point x="837" y="1824"/>
      <point x="837" y="1918" type="curve" smooth="yes"/>
      <point x="837" y="1924" type="line" smooth="yes"/>
      <point x="837" y="2019"/>
      <point x="779" y="2082"/>
      <point x="654" y="2082" type="curve" smooth="yes"/>
      <point x="531" y="2082"/>
      <point x="473" y="2019"/>
      <point x="473" y="1924" type="curve" smooth="yes"/>
      <point x="473" y="1918" type="line" smooth="yes"/>
      <point x="473" y="1824"/>
      <point x="531" y="1763"/>
    </contour>
    <contour>
      <point x="1080" y="1763" type="curve" smooth="yes"/>
      <point x="1202" y="1763"/>
      <point x="1261" y="1824"/>
      <point x="1261" y="1918" type="curve" smooth="yes"/>
      <point x="1261" y="1924" type="line" smooth="yes"/>
      <point x="1261" y="2019"/>
      <point x="1202" y="2082"/>
      <point x="1080" y="2082" type="curve" smooth="yes"/>
      <point x="957" y="2082"/>
      <point x="898" y="2019"/>
      <point x="898" y="1924" type="curve" smooth="yes"/>
      <point x="898" y="1918" type="line" smooth="yes"/>
      <point x="898" y="1824"/>
      <point x="955" y="1763"/>
    </contour>
    <component base="O"/>
    <component base="tildecomb.case" xOffset="353"/>
  </outline>
</glyph>
<glyph name="otildedieresis" format="2">
  <advance width="1425"/>
  <unicode hex="1E4F"/>
  <anchor x="713" y="1749.84" name="top"/>
  <anchor x="713" y="0" name="bottom"/>
  <anchor x="713" y="482" name="center"/>
  <anchor x="1081" y="10" name="ogonek"/>
  <anchor x="1372" y="963" name="topright"/>
  <outline>
    <contour>
      <point x="500" y="1464" type="curve" smooth="yes"/>
      <point x="625" y="1464"/>
      <point x="683" y="1525"/>
      <point x="683" y="1619" type="curve" smooth="yes"/>
      <point x="683" y="1625" type="line" smooth="yes"/>
      <point x="683" y="1720"/>
      <point x="625" y="1783"/>
      <point x="500" y="1783" type="curve" smooth="yes"/>
      <point x="377" y="1783"/>
      <point x="319" y="1720"/>
      <point x="319" y="1625" type="curve" smooth="yes"/>
      <point x="319" y="1619" type="line" smooth="yes"/>
      <point x="319" y="1525"/>
      <point x="377" y="1464"/>
    </contour>
    <contour>
      <point x="926" y="1464" type="curve" smooth="yes"/>
      <point x="1048" y="1464"/>
      <point x="1107" y="1525"/>
      <point x="1107" y="1619" type="curve" smooth="yes"/>
      <point x="1107" y="1625" type="line" smooth="yes"/>
      <point x="1107" y="1720"/>
      <point x="1048" y="1783"/>
      <point x="926" y="1783" type="curve" smooth="yes"/>
      <point x="803" y="1783"/>
      <point x="744" y="1720"/>
      <point x="744" y="1625" type="curve" smooth="yes"/>
      <point x="744" y="1619" type="line" smooth="yes"/>
      <point x="744" y="1525"/>
      <point x="801" y="1464"/>
    </contour>
    <component base="o"/>
    <component base="tildecomb" xOffset="199"/>
  </outline>
</glyph>
<glyph name="sacutedotaccent" format="2">
  <advance width="1239"/>
  <unicode hex="1E65"/>
  <anchor x="619.92" y="1756.56" name="top"/>
  <anchor x="620" y="0" name="bottom"/>
  <outline>
    <contour>
      <point x="619" y="1470" type="curve" smooth="yes"/>
      <point x="752" y="1470"/>
      <point x="814" y="1534"/>
      <point x="814" y="1631" type="curve" smooth="yes"/>
      <point x="814" y="1638" type="line" smooth="yes"/>
      <point x="814" y="1736"/>
      <point x="752" y="1802"/>
      <point x="619" y="1802" type="curve" smooth="yes"/>
      <point x="487" y="1802"/>
      <point x="426" y="1736"/>
      <point x="426" y="1638" type="curve" smooth="yes"/>
      <point x="426" y="1631" type="line" smooth="yes"/>
      <point x="426" y="1534"/>
      <point x="487" y="1470"/>
    </contour>
    <component base="s"/>
    <component base="acutecomb" xOffset="350"/>
  </outline>
</glyph>
<glyph name="Scarondotaccent" format="2">
  <advance width="1467"/>
  <unicode hex="1E66"/>
  <anchor x="727" y="2053" name="top"/>
  <anchor x="729" y="0" name="bottom"/>
  <outline>
    <contour>
      <point x="728" y="1779" type="curve" smooth="yes"/>
      <point x="861" y="1779"/>
      <point x="923" y="1843"/>
      <point x="923" y="1940" type="curve" smooth="yes"/>
      <point x="923" y="1946" type="line" smooth="yes"/>
      <point x="923" y="2044"/>
      <point x="861" y="2110"/>
      <point x="728" y="2110" type="curve" smooth="yes"/>
      <point x="596" y="2110"/>
      <point x="535" y="2044"/>
      <point x="535" y="1946" type="curve" smooth="yes"/>
      <point x="535" y="1940" type="line" smooth="yes"/>
      <point x="535" y="1843"/>
      <point x="596" y="1779"/>
    </contour>
    <component base="S"/>
    <component base="caroncomb.case" xOffset="188"/>
  </outline>
</glyph>
<glyph name="scarondotaccent" format="2">
  <advance width="1239"/>
  <unicode hex="1E67"/>
  <anchor x="619.92" y="1752.56" name="top"/>
  <anchor x="620" y="0" name="bottom"/>
  <outline>
    <contour>
      <point x="619" y="1466" type="curve" smooth="yes"/>
      <point x="752" y="1466"/>
      <point x="814" y="1530"/>
      <point x="814" y="1627" type="curve" smooth="yes"/>
      <point x="814" y="1634" type="line" smooth="yes"/>
      <point x="814" y="1732"/>
      <point x="752" y="1798"/>
      <point x="619" y="1798" type="curve" smooth="yes"/>
      <point x="487" y="1798"/>
      <point x="426" y="1732"/>
      <point x="426" y="1634" type="curve" smooth="yes"/>
      <point x="426" y="1627" type="line" smooth="yes"/>
      <point x="426" y="1530"/>
      <point x="487" y="1466"/>
    </contour>
    <component base="s"/>
    <component base="caroncomb" xOffset="89"/>
  </outline>
</glyph>
<glyph name="Ohorntilde" format="2">
  <advance width="1734"/>
  <unicode hex="1EE0"/>
  <anchor x="867" y="1669" name="top"/>
  <anchor x="867" y="0" name="bottom"/>
  <anchor x="867" y="639" name="center"/>
  <anchor x="1341" y="10" name="ogonek"/>
  <anchor x="20" y="1278" name="topleft"/>
  <anchor x="1747" y="1520" name="topright"/>
  <outline>
    <contour>
      <point x="1024" y="1400" type="curve" smooth="yes"/>
      <point x="1218" y="1400"/>
      <point x="1281" y="1512"/>
      <point x="1281" y="1671" type="curve" smooth="yes"/>
      <point x="1281" y="1700" type="line"/>
      <point x="1057" y="1700" type="line"/>
      <point x="1057" y="1700" type="line"/>
      <point x="1056" y="1657"/>
      <point x="1042" y="1635"/>
      <point x="996" y="1635" type="curve" smooth="yes"/>
      <point x="924" y="1635"/>
      <point x="828" y="1686"/>
      <point x="708" y="1686" type="curve" smooth="yes"/>
      <point x="516" y="1686"/>
      <point x="453" y="1573"/>
      <point x="453" y="1419" type="curve" smooth="yes"/>
      <point x="453" y="1386" type="line"/>
      <point x="675" y="1386" type="line"/>
      <point x="675" y="1386" type="line"/>
      <point x="676" y="1430"/>
      <point x="690" y="1451"/>
      <point x="736" y="1451" type="curve" smooth="yes"/>
      <point x="809" y="1451"/>
      <point x="907" y="1400"/>
    </contour>
    <component base="Ohorn"/>
  </outline>
</glyph>
<glyph name="Uhorntilde" format="2">
  <advance width="1692"/>
  <unicode hex="1EEE"/>
  <anchor x="846" y="1669" name="top"/>
  <anchor x="846" y="0" name="bottom"/>
  <anchor x="1280" y="10" name="ogonek"/>
  <anchor x="1755" y="1520" name="topright"/>
  <outline>
    <contour>
      <point x="1003" y="1400" type="curve" smooth="yes"/>
      <point x="1197" y="1400"/>
      <point x="1260" y="1512"/>
      <point x="1260" y="1671" type="curve" smooth="yes"/>
      <point x="1260" y="1700" type="line"/>
      <point x="1036" y="1700" type="line"/>
      <point x="1036" y="1700" type="line"/>
      <point x="1035" y="1657"/>
      <point x="1021" y="1635"/>
      <point x="975" y="1635" type="curve" smooth="yes"/>
      <point x="903" y="1635"/>
      <point x="807" y="1686"/>
      <point x="687" y="1686" type="curve" smooth="yes"/>
      <point x="495" y="1686"/>
      <point x="432" y="1573"/>
      <point x="432" y="1419" type="curve" smooth="yes"/>
      <point x="432" y="1386" type="line"/>
      <point x="654" y="1386" type="line"/>
      <point x="654" y="1386" type="line"/>
      <point x="655" y="1430"/>
      <point x="669" y="1451"/>
      <point x="715" y="1451" type="curve" smooth="yes"/>
      <point x="788" y="1451"/>
      <point x="886" y="1400"/>
    </contour>
    <component base="Uhorn"/>
  </outline>
</glyph>
<glyph name="dagger" format="2">
  <advance width="1156"/>
  <unicode hex="2020"/>
  <outline>
    <contour>
      <point x="74" y="660" type="line"/>
      <point x="578" y="670" type="line"/>
      <point x="1082" y="660" type="line"/>
      <point x="1082" y="963" type="line"/>
      <point x="578" y="953" type="line"/>
      <point x="74" y="963" type="line"/>
    </contour>
    <contour>
      <point x="375" y="528" type="line"/>
      <point x="375" y="176" type="line"/>
      <point x="475" y="-338" type="line"/>
      <point x="681" y="-338" type="line"/>
      <point x="781" y="176" type="line"/>
      <point x="781" y="528" type="line"/>
      <point x="761" y="792" type="line"/>
      <point x="761" y="822" type="line"/>
      <point x="781" y="1278" type="line"/>
      <point x="375" y="1278" type="line"/>
      <point x="395" y="822" type="line"/>
      <point x="395" y="792" type="line"/>
    </contour>
  </outline>
</glyph>
<glyph name="daggerdbl" format="2">
  <advance width="1168"/>
  <unicode hex="2021"/>
  <outline>
    <contour>
      <point x="80" y="660" type="line"/>
      <point x="584" y="670" type="line"/>
      <point x="1088" y="660" type="line"/>
      <point x="1088" y="963" type="line"/>
      <point x="584" y="953" type="line"/>
      <point x="80" y="963" type="line"/>
    </contour>
    <contour>
      <point x="80" y="280" type="line"/>
      <point x="80" y="-23" type="line"/>
      <point x="584" y="-13" type="line"/>
      <point x="1088" y="-23" type="line"/>
      <point x="1088" y="280" type="line"/>
      <point x="584" y="270" type="line"/>
    </contour>
    <contour>
      <point x="381" y="-338" type="line"/>
      <point x="787" y="-338" type="line"/>
      <point x="767" y="118" type="line"/>
      <point x="767" y="148" type="line"/>
      <point x="787" y="415" type="line"/>
      <point x="787" y="525" type="line"/>
      <point x="767" y="792" type="line"/>
      <point x="767" y="822" type="line"/>
      <point x="787" y="1278" type="line"/>
      <point x="381" y="1278" type="line"/>
      <point x="401" y="822" type="line"/>
      <point x="401" y="792" type="line"/>
      <point x="381" y="528" type="line"/>
      <point x="381" y="415" type="line"/>
      <point x="401" y="148" type="line"/>
      <point x="401" y="118" type="line"/>
    </contour>
  </outline>
</glyph>
<glyph name="bullet" format="2">
  <advance width="799"/>
  <unicode hex="2022"/>
  <outline>
    <contour>
      <point x="399" y="323" type="curve" smooth="yes"/>
      <point x="604" y="323"/>
      <point x="698" y="424"/>
      <point x="698" y="586" type="curve" smooth="yes"/>
      <point x="698" y="593" type="line" smooth="yes"/>
      <point x="698" y="757"/>
      <point x="604" y="860"/>
      <point x="399" y="860" type="curve" smooth="yes"/>
      <point x="192" y="860"/>
      <point x="100" y="757"/>
      <point x="100" y="593" type="curve" smooth="yes"/>
      <point x="100" y="586" type="line" smooth="yes"/>
      <point x="100" y="424"/>
      <point x="192" y="323"/>
    </contour>
  </outline>
</glyph>
<glyph name="perthousand" format="2">
  <advance width="2857"/>
  <unicode hex="2030"/>
  <outline>
    <contour>
      <point x="2399" y="-45" type="curve" smooth="yes"/>
      <point x="2648" y="-45"/>
      <point x="2789" y="82"/>
      <point x="2789" y="306" type="curve"/>
      <point x="2789" y="315" type="line"/>
      <point x="2789" y="538"/>
      <point x="2646" y="664"/>
      <point x="2399" y="664" type="curve" smooth="yes"/>
      <point x="2151" y="664"/>
      <point x="2013" y="534"/>
      <point x="2013" y="315" type="curve"/>
      <point x="2013" y="306" type="line"/>
      <point x="2013" y="82"/>
      <point x="2151" y="-45"/>
    </contour>
    <contour>
      <point x="2399" y="180" type="curve" smooth="yes"/>
      <point x="2322" y="180"/>
      <point x="2280" y="224"/>
      <point x="2280" y="306" type="curve" smooth="yes"/>
      <point x="2280" y="313" type="line" smooth="yes"/>
      <point x="2280" y="393"/>
      <point x="2321" y="440"/>
      <point x="2399" y="440" type="curve" smooth="yes"/>
      <point x="2479" y="440"/>
      <point x="2518" y="393"/>
      <point x="2518" y="313" type="curve" smooth="yes"/>
      <point x="2518" y="306" type="line" smooth="yes"/>
      <point x="2518" y="224"/>
      <point x="2479" y="180"/>
    </contour>
    <component base="percent"/>
  </outline>
</glyph>
<glyph name="minute" format="2">
  <advance width="524"/>
  <unicode hex="2032"/>
  <outline>
    <contour>
      <point x="382" y="758" type="line"/>
      <point x="486" y="1314" type="line"/>
      <point x="98" y="1314" type="line"/>
      <point x="78" y="758" type="line"/>
    </contour>
  </outline>
</glyph>
<glyph name="commercialMinusSign" format="2">
  <advance width="1119"/>
  <unicode hex="2052"/>
  <outline>
    <contour>
      <point x="54" y="1" type="line"/>
      <point x="388" y="1" type="line"/>
      <point x="1065" y="1279" type="line"/>
      <point x="736" y="1279" type="line"/>
    </contour>
    <component base="period" xOffset="-36" yOffset="956"/>
    <component base="period" xOffset="541"/>
  </outline>
</glyph>
<glyph name="colonsign" format="2">
  <advance width="1460"/>
  <unicode hex="20A1"/>
  <anchor x="800" y="0" name="bottom"/>
  <anchor x="800" y="1278" name="top"/>
  <outline>
    <contour>
      <point x="342" y="-232" type="line"/>
      <point x="550" y="-232" type="line"/>
      <point x="690" y="149" type="line"/>
      <point x="482" y="149" type="line"/>
    </contour>
    <contour>
      <point x="617" y="-232" type="line"/>
      <point x="825" y="-232" type="line"/>
      <point x="965" y="149" type="line"/>
      <point x="757" y="149" type="line"/>
    </contour>
    <contour>
      <point x="625" y="1187" type="line"/>
      <point x="833" y="1187" type="line"/>
      <point x="951" y="1514" type="line"/>
      <point x="743" y="1514" type="line"/>
    </contour>
    <contour>
      <point x="900" y="1187" type="line"/>
      <point x="1108" y="1187" type="line"/>
      <point x="1226" y="1514" type="line"/>
      <point x="1018" y="1514" type="line"/>
    </contour>
    <component base="C"/>
  </outline>
</glyph>
<glyph name="franc" format="2">
  <advance width="1443"/>
  <unicode hex="20A3"/>
  <outline>
    <contour>
      <point x="156" y="0" type="line"/>
      <point x="553" y="0" type="line"/>
      <point x="553" y="1278" type="line"/>
      <point x="156" y="1278" type="line"/>
    </contour>
    <contour>
      <point x="0" y="126" type="line"/>
      <point x="1118" y="125" type="line"/>
      <point x="1137" y="319" type="line"/>
      <point x="19" y="321" type="line"/>
    </contour>
    <contour>
      <point x="362" y="433" type="line"/>
      <point x="1335" y="433" type="line"/>
      <point x="1335" y="755" type="line"/>
      <point x="362" y="755" type="line"/>
    </contour>
    <contour>
      <point x="156" y="956" type="line"/>
      <point x="1357" y="956" type="line"/>
      <point x="1357" y="1278" type="line"/>
      <point x="156" y="1278" type="line"/>
    </contour>
  </outline>
</glyph>
<glyph name="lira" format="2">
  <advance width="1478"/>
  <unicode hex="20A4"/>
  <outline>
    <contour>
      <point x="529" y="322" type="line"/>
      <point x="529" y="334" type="line"/>
      <point x="707" y="368"/>
      <point x="749" y="431"/>
      <point x="749" y="534" type="curve" smooth="yes"/>
      <point x="749" y="619"/>
      <point x="673" y="732"/>
      <point x="673" y="840" type="curve" smooth="yes"/>
      <point x="673" y="932"/>
      <point x="712" y="982"/>
      <point x="944" y="982" type="curve" smooth="yes"/>
      <point x="1080" y="982"/>
      <point x="1207" y="965"/>
      <point x="1338" y="939" type="curve"/>
      <point x="1304" y="1267" type="line"/>
      <point x="1171" y="1298"/>
      <point x="1002" y="1314"/>
      <point x="850" y="1314" type="curve" smooth="yes"/>
      <point x="432" y="1314"/>
      <point x="237" y="1178"/>
      <point x="237" y="898" type="curve" smooth="yes"/>
      <point x="237" y="752"/>
      <point x="324" y="565"/>
      <point x="324" y="456" type="curve" smooth="yes"/>
      <point x="324" y="385"/>
      <point x="296" y="345"/>
      <point x="206" y="321" type="curve" smooth="yes"/>
      <point x="104" y="302" type="line"/>
      <point x="104" y="0" type="line"/>
      <point x="1418" y="0" type="line"/>
      <point x="1418" y="322" type="line"/>
    </contour>
    <contour>
      <point x="111" y="886" type="line"/>
      <point x="90" y="692" type="line"/>
      <point x="1221" y="692" type="line"/>
      <point x="1240" y="886" type="line"/>
    </contour>
    <contour>
      <point x="111" y="594" type="line"/>
      <point x="90" y="400" type="line"/>
      <point x="1221" y="400" type="line"/>
      <point x="1240" y="594" type="line"/>
    </contour>
  </outline>
</glyph>
<glyph name="naira" format="2">
  <advance width="1762"/>
  <unicode hex="20A6"/>
  <outline>
    <contour>
      <point x="156" y="0" type="line"/>
      <point x="555" y="0" type="line"/>
      <point x="555" y="450" type="line"/>
      <point x="544" y="933" type="line"/>
      <point x="562" y="933" type="line"/>
      <point x="727" y="657" type="line"/>
      <point x="1086" y="656" type="line"/>
      <point x="715" y="1278" type="line"/>
      <point x="156" y="1278" type="line"/>
    </contour>
    <contour>
      <point x="0" y="534" type="line"/>
      <point x="1743" y="534" type="line"/>
      <point x="1762" y="778" type="line"/>
      <point x="19" y="779" type="line"/>
    </contour>
    <contour>
      <point x="1072" y="0" type="line"/>
      <point x="1606" y="0" type="line"/>
      <point x="1606" y="1278" type="line"/>
      <point x="1207" y="1278" type="line"/>
      <point x="1207" y="863" type="line"/>
      <point x="1218" y="380" type="line"/>
      <point x="1200" y="380" type="line"/>
      <point x="1036" y="656" type="line"/>
      <point x="677" y="657" type="line"/>
    </contour>
  </outline>
</glyph>
<glyph name="won" format="2">
  <advance width="2224"/>
  <unicode hex="20A9"/>
  <outline>
    <contour>
      <point x="357" y="0" type="line"/>
      <point x="918" y="0" type="line"/>
      <point x="1059" y="649" type="line"/>
      <point x="742" y="649" type="line"/>
      <point x="701" y="456" type="line"/>
      <point x="670" y="309" type="line"/>
      <point x="648" y="309" type="line"/>
      <point x="621" y="456" type="line"/>
      <point x="461" y="1278" type="line"/>
      <point x="47" y="1278" type="line"/>
    </contour>
    <contour>
      <point x="1307" y="0" type="line"/>
      <point x="1869" y="0" type="line"/>
      <point x="2179" y="1278" type="line"/>
      <point x="1765" y="1278" type="line"/>
      <point x="1604" y="455" type="line"/>
      <point x="1577" y="309" type="line"/>
      <point x="1555" y="309" type="line"/>
      <point x="1524" y="457" type="line"/>
      <point x="1484" y="643" type="line"/>
      <point x="1167" y="643" type="line"/>
    </contour>
    <contour>
      <point x="18" y="534" type="line"/>
      <point x="2174" y="534" type="line"/>
      <point x="2193" y="778" type="line"/>
      <point x="37" y="779" type="line"/>
    </contour>
    <contour>
      <point x="860" y="1242" type="line"/>
      <point x="722" y="649" type="line"/>
      <point x="1039" y="649" type="line"/>
      <point x="1052" y="715" type="line"/>
      <point x="1102" y="971" type="line"/>
      <point x="1123" y="971" type="line"/>
      <point x="1172" y="715" type="line"/>
      <point x="1187" y="643" type="line"/>
      <point x="1504" y="643" type="line"/>
      <point x="1365" y="1242" type="line"/>
    </contour>
  </outline>
</glyph>
<glyph name="uni20AA" format="2">
  <advance width="2092"/>
  <unicode hex="20AA"/>
  <outline>
    <contour>
      <point x="628" y="0" type="line"/>
      <point x="1466" y="0" type="line" smooth="yes"/>
      <point x="1813" y="0"/>
      <point x="1958" y="155"/>
      <point x="1958" y="449" type="curve" smooth="yes"/>
      <point x="1958" y="1089" type="line"/>
      <point x="1593" y="1089" type="line"/>
      <point x="1593" y="449" type="line" smooth="yes"/>
      <point x="1593" y="359"/>
      <point x="1565" y="304"/>
      <point x="1450" y="304" type="curve" smooth="yes"/>
      <point x="983" y="304" type="line"/>
      <point x="983" y="683" type="line"/>
      <point x="628" y="683" type="line"/>
    </contour>
    <contour>
      <point x="134" y="1088" type="line"/>
      <point x="134" y="0" type="line"/>
      <point x="500" y="0" type="line"/>
      <point x="500" y="784" type="line"/>
      <point x="967" y="784" type="line" smooth="yes"/>
      <point x="1081" y="784"/>
      <point x="1110" y="729"/>
      <point x="1110" y="639" type="curve" smooth="yes"/>
      <point x="1110" y="405" type="line"/>
      <point x="1465" y="405" type="line"/>
      <point x="1465" y="639" type="line" smooth="yes"/>
      <point x="1465" y="933"/>
      <point x="1334" y="1088"/>
      <point x="973" y="1088" type="curve" smooth="yes"/>
    </contour>
  </outline>
</glyph>
<glyph name="dong" format="2">
  <advance width="1486"/>
  <unicode hex="20AB"/>
  <anchor x="743.301" y="-357" name="bottom"/>
  <anchor x="743" y="482" name="center"/>
  <anchor x="743" y="1314" name="top"/>
  <anchor x="1466" y="1314" name="topright"/>
  <outline>
    <contour>
      <point x="89" y="-357" type="line"/>
      <point x="1398" y="-357" type="line"/>
      <point x="1398" y="-131" type="line"/>
      <point x="89" y="-131" type="line"/>
    </contour>
    <component base="dcroat"/>
  </outline>
</glyph>
<glyph name="kip" format="2">
  <advance width="1594"/>
  <unicode hex="20AD"/>
  <anchor x="808" y="0" name="bottom"/>
  <anchor x="808" y="1278" name="top"/>
  <outline>
    <contour>
      <point x="709" y="798" type="line"/>
      <point x="690" y="554" type="line"/>
      <point x="1472" y="553" type="line"/>
      <point x="1491" y="797" type="line"/>
    </contour>
    <contour>
      <point x="466" y="554" type="line"/>
      <point x="485" y="798" type="line"/>
      <point x="19" y="799" type="line"/>
      <point x="0" y="554" type="line"/>
    </contour>
    <component base="K" xOffset="22"/>
  </outline>
</glyph>
<glyph name="uni20AE" format="2">
  <advance width="1518"/>
  <unicode hex="20AE"/>
  <anchor x="759" y="0" name="bottom"/>
  <anchor x="759" y="639" name="center"/>
  <anchor x="759" y="1278" name="top"/>
  <outline>
    <contour>
      <point x="1204" y="877" type="line"/>
      <point x="315" y="577" type="line"/>
      <point x="315" y="373" type="line"/>
      <point x="1204" y="673" type="line"/>
    </contour>
    <contour>
      <point x="1204" y="580" type="line"/>
      <point x="315" y="280" type="line"/>
      <point x="315" y="76" type="line"/>
      <point x="1204" y="376" type="line"/>
    </contour>
    <component base="T"/>
  </outline>
</glyph>
<glyph name="peso" format="2">
  <advance width="1616"/>
  <unicode hex="20B1"/>
  <outline>
    <contour>
      <point x="458" y="345" type="line"/>
      <point x="922" y="345" type="line" smooth="yes"/>
      <point x="1325" y="345"/>
      <point x="1511" y="514"/>
      <point x="1511" y="804" type="curve" smooth="yes"/>
      <point x="1511" y="817" type="line" smooth="yes"/>
      <point x="1511" y="1113"/>
      <point x="1325" y="1278"/>
      <point x="922" y="1278" type="curve" smooth="yes"/>
      <point x="458" y="1278" type="line"/>
      <point x="458" y="970" type="line"/>
      <point x="902" y="970" type="line" smooth="yes"/>
      <point x="1041" y="970"/>
      <point x="1105" y="922"/>
      <point x="1105" y="818" type="curve" smooth="yes"/>
      <point x="1105" y="805" type="line" smooth="yes"/>
      <point x="1105" y="701"/>
      <point x="1041" y="653"/>
      <point x="902" y="653" type="curve" smooth="yes"/>
      <point x="458" y="653" type="line"/>
    </contour>
    <contour>
      <point x="10" y="504" type="line"/>
      <point x="440" y="504" type="line"/>
      <point x="459" y="698" type="line"/>
      <point x="29" y="698" type="line"/>
    </contour>
    <contour>
      <point x="165" y="0" type="line"/>
      <point x="561" y="0" type="line"/>
      <point x="561" y="398" type="line"/>
      <point x="560" y="567" type="line"/>
      <point x="560" y="1278" type="line"/>
      <point x="165" y="1278" type="line"/>
    </contour>
    <contour>
      <point x="10" y="796" type="line"/>
      <point x="440" y="796" type="line"/>
      <point x="459" y="990" type="line"/>
      <point x="29" y="990" type="line"/>
    </contour>
    <contour>
      <point x="1253" y="504" type="line"/>
      <point x="1607" y="504" type="line"/>
      <point x="1626" y="698" type="line"/>
      <point x="1272" y="698" type="line"/>
    </contour>
    <contour>
      <point x="1253" y="796" type="line"/>
      <point x="1607" y="796" type="line"/>
      <point x="1626" y="990" type="line"/>
      <point x="1272" y="990" type="line"/>
    </contour>
  </outline>
</glyph>
<glyph name="cedi" format="2">
  <advance width="1460"/>
  <unicode hex="20B5"/>
  <anchor x="800" y="0" name="bottom"/>
  <anchor x="800" y="1278" name="top"/>
  <outline>
    <contour>
      <point x="708" y="-235" type="line"/>
      <point x="1036" y="-235" type="line"/>
      <point x="1036" y="141" type="line"/>
      <point x="708" y="141" type="line"/>
    </contour>
    <contour>
      <point x="708" y="1112" type="line"/>
      <point x="1036" y="1112" type="line"/>
      <point x="1036" y="1514" type="line"/>
      <point x="708" y="1514" type="line"/>
    </contour>
    <component base="C"/>
  </outline>
</glyph>
<glyph name="liraTurkish" format="2">
  <advance width="1491"/>
  <unicode hex="20BA"/>
  <outline>
    <contour>
      <point x="156" y="0" type="line"/>
      <point x="572" y="0" type="line"/>
      <point x="1161" y="0"/>
      <point x="1423" y="253"/>
      <point x="1431" y="644" type="curve"/>
      <point x="1431" y="653" type="line"/>
      <point x="1025" y="653" type="line"/>
      <point x="1025" y="644" type="line"/>
      <point x="1025" y="432"/>
      <point x="886" y="332"/>
      <point x="620" y="332" type="curve"/>
      <point x="562" y="332" type="line"/>
      <point x="562" y="1278" type="line"/>
      <point x="156" y="1278" type="line"/>
    </contour>
    <contour>
      <point x="889" y="1191" type="line"/>
      <point x="0" y="891" type="line"/>
      <point x="0" y="687" type="line"/>
      <point x="889" y="987" type="line"/>
    </contour>
    <contour>
      <point x="889" y="894" type="line"/>
      <point x="0" y="594" type="line"/>
      <point x="0" y="390" type="line"/>
      <point x="889" y="690" type="line"/>
    </contour>
  </outline>
</glyph>
<glyph name="manat" format="2">
  <advance width="1952"/>
  <unicode hex="20BC"/>
  <outline>
    <contour>
      <point x="976" y="1323" type="curve" smooth="yes"/>
      <point x="410" y="1323"/>
      <point x="122" y="1069"/>
      <point x="122" y="571" type="curve" smooth="yes"/>
      <point x="122" y="0" type="line"/>
      <point x="528" y="0" type="line"/>
      <point x="528" y="570" type="line" smooth="yes"/>
      <point x="528" y="842"/>
      <point x="672" y="989"/>
      <point x="976" y="989" type="curve" smooth="yes"/>
      <point x="1280" y="989"/>
      <point x="1424" y="842"/>
      <point x="1424" y="570" type="curve" smooth="yes"/>
      <point x="1424" y="0" type="line"/>
      <point x="1830" y="0" type="line"/>
      <point x="1830" y="571" type="line" smooth="yes"/>
      <point x="1830" y="1069"/>
      <point x="1542" y="1323"/>
    </contour>
    <contour>
      <point x="1140" y="0" type="line"/>
      <point x="1140" y="1514" type="line"/>
      <point x="812" y="1514" type="line"/>
      <point x="812" y="0" type="line"/>
    </contour>
  </outline>
</glyph>
<glyph name="ruble" format="2">
  <advance width="1572"/>
  <unicode hex="20BD"/>
  <outline>
    <contour>
      <point x="459" y="395" type="line"/>
      <point x="933" y="395" type="line" smooth="yes"/>
      <point x="1329" y="395"/>
      <point x="1512" y="555"/>
      <point x="1512" y="829" type="curve" smooth="yes"/>
      <point x="1512" y="842" type="line" smooth="yes"/>
      <point x="1512" y="1122"/>
      <point x="1329" y="1278"/>
      <point x="933" y="1278" type="curve" smooth="yes"/>
      <point x="459" y="1278" type="line"/>
      <point x="459" y="970" type="line"/>
      <point x="913" y="970" type="line" smooth="yes"/>
      <point x="1045" y="970"/>
      <point x="1106" y="943"/>
      <point x="1106" y="843" type="curve" smooth="yes"/>
      <point x="1106" y="830" type="line" smooth="yes"/>
      <point x="1106" y="743"/>
      <point x="1045" y="703"/>
      <point x="913" y="703" type="curve" smooth="yes"/>
      <point x="459" y="703" type="line"/>
    </contour>
    <contour>
      <point x="10" y="103" type="line"/>
      <point x="1128" y="102" type="line"/>
      <point x="1147" y="295" type="line"/>
      <point x="29" y="297" type="line"/>
    </contour>
    <contour>
      <point x="10" y="396" type="line"/>
      <point x="528" y="395" type="line"/>
      <point x="528" y="588" type="line"/>
      <point x="29" y="590" type="line"/>
    </contour>
    <contour>
      <point x="166" y="0" type="line"/>
      <point x="562" y="0" type="line"/>
      <point x="562" y="438" type="line"/>
      <point x="561" y="607" type="line"/>
      <point x="561" y="1278" type="line"/>
      <point x="166" y="1278" type="line"/>
    </contour>
  </outline>
</glyph>
<glyph name="literSign" format="2">
  <advance width="1144"/>
  <unicode hex="2113"/>
  <outline>
    <contour>
      <point x="412" y="609" type="curve"/>
      <point x="445" y="310" type="line"/>
      <point x="872" y="421"/>
      <point x="1073" y="575"/>
      <point x="1073" y="889" type="curve" smooth="yes"/>
      <point x="1073" y="910" type="line" smooth="yes"/>
      <point x="1073" y="1195"/>
      <point x="900" y="1344"/>
      <point x="622" y="1344" type="curve" smooth="yes"/>
      <point x="318" y="1344"/>
      <point x="152" y="1190"/>
      <point x="152" y="890" type="curve" smooth="yes"/>
      <point x="152" y="457" type="line"/>
      <point x="537" y="457" type="line"/>
      <point x="537" y="929" type="line" smooth="yes"/>
      <point x="537" y="999"/>
      <point x="564" y="1041"/>
      <point x="622" y="1041" type="curve" smooth="yes"/>
      <point x="678" y="1041"/>
      <point x="708" y="1006"/>
      <point x="708" y="927" type="curve" smooth="yes"/>
      <point x="708" y="912" type="line" smooth="yes"/>
      <point x="708" y="773"/>
      <point x="664" y="692"/>
    </contour>
    <contour>
      <point x="382" y="304" type="curve"/>
      <point x="382" y="608" type="line"/>
      <point x="284" y="575"/>
      <point x="164" y="536"/>
      <point x="25" y="496" type="curve"/>
      <point x="25" y="179" type="line"/>
      <point x="149" y="220"/>
      <point x="270" y="261"/>
    </contour>
    <contour>
      <point x="685" y="-28" type="curve" smooth="yes"/>
      <point x="814" y="-28"/>
      <point x="934" y="-3"/>
      <point x="1020" y="29" type="curve"/>
      <point x="1059" y="333" type="line"/>
      <point x="978" y="305"/>
      <point x="863" y="277"/>
      <point x="767" y="277" type="curve" smooth="yes"/>
      <point x="580" y="277"/>
      <point x="541" y="333"/>
      <point x="541" y="491" type="curve" smooth="yes"/>
      <point x="541" y="535" type="line"/>
      <point x="155" y="525" type="line"/>
      <point x="155" y="441" type="line" smooth="yes"/>
      <point x="155" y="136"/>
      <point x="304" y="-28"/>
    </contour>
  </outline>
</glyph>
<glyph name="numero" format="2">
  <advance width="2637"/>
  <unicode hex="2116"/>
  <anchor x="859" y="0" name="bottom"/>
  <anchor x="859" y="1278" name="top"/>
  <outline>
    <contour>
      <point x="1763" y="291" type="line"/>
      <point x="2551" y="291" type="line"/>
      <point x="2551" y="509" type="line"/>
      <point x="1763" y="509" type="line"/>
    </contour>
    <contour>
      <point x="2156" y="621" type="curve" smooth="yes"/>
      <point x="2414" y="621"/>
      <point x="2553" y="740"/>
      <point x="2553" y="951" type="curve"/>
      <point x="2553" y="964" type="line"/>
      <point x="2553" y="1173"/>
      <point x="2415" y="1294"/>
      <point x="2156" y="1294" type="curve" smooth="yes"/>
      <point x="1901" y="1294"/>
      <point x="1761" y="1174"/>
      <point x="1761" y="964" type="curve"/>
      <point x="1761" y="951" type="line"/>
      <point x="1761" y="740"/>
      <point x="1900" y="621"/>
    </contour>
    <contour>
      <point x="2156" y="831" type="curve" smooth="yes"/>
      <point x="2077" y="831"/>
      <point x="2033" y="871"/>
      <point x="2033" y="954" type="curve" smooth="yes"/>
      <point x="2033" y="961" type="line" smooth="yes"/>
      <point x="2033" y="1043"/>
      <point x="2077" y="1084"/>
      <point x="2156" y="1084" type="curve" smooth="yes"/>
      <point x="2237" y="1084"/>
      <point x="2281" y="1043"/>
      <point x="2281" y="961" type="curve" smooth="yes"/>
      <point x="2281" y="954" type="line" smooth="yes"/>
      <point x="2281" y="871"/>
      <point x="2237" y="831"/>
    </contour>
    <component base="N"/>
  </outline>
</glyph>
<glyph name="Ohm" format="2">
  <advance width="1744"/>
  <unicode hex="2126"/>
  <outline>
    <contour>
      <point x="871" y="1323" type="curve" smooth="yes"/>
      <point x="350" y="1323"/>
      <point x="88" y="1103"/>
      <point x="88" y="752" type="curve" smooth="yes"/>
      <point x="88" y="743" type="line" smooth="yes"/>
      <point x="88" y="507"/>
      <point x="223" y="360"/>
      <point x="492" y="322" type="curve"/>
      <point x="492" y="308" type="line"/>
      <point x="64" y="308" type="line"/>
      <point x="64" y="1" type="line"/>
      <point x="784" y="1" type="line"/>
      <point x="784" y="300" type="line"/>
      <point x="617" y="346"/>
      <point x="510" y="469"/>
      <point x="510" y="637" type="curve" smooth="yes"/>
      <point x="510" y="658" type="line" smooth="yes"/>
      <point x="510" y="859"/>
      <point x="645" y="975"/>
      <point x="872" y="975" type="curve" smooth="yes"/>
      <point x="1099" y="975"/>
      <point x="1234" y="859"/>
      <point x="1234" y="658" type="curve" smooth="yes"/>
      <point x="1234" y="637" type="line" smooth="yes"/>
      <point x="1234" y="469"/>
      <point x="1127" y="346"/>
      <point x="960" y="300" type="curve"/>
      <point x="960" y="1" type="line"/>
      <point x="1680" y="1" type="line"/>
      <point x="1680" y="308" type="line"/>
      <point x="1252" y="308" type="line"/>
      <point x="1252" y="322" type="line"/>
      <point x="1521" y="360"/>
      <point x="1656" y="507"/>
      <point x="1656" y="743" type="curve" smooth="yes"/>
      <point x="1656" y="752" type="line" smooth="yes"/>
      <point x="1656" y="1103"/>
      <point x="1392" y="1323"/>
    </contour>
  </outline>
</glyph>
<glyph name="estimated" format="2">
  <advance width="1539"/>
  <unicode hex="212E"/>
  <outline>
    <contour>
      <point x="344" y="581" type="curve"/>
      <point x="1457" y="581" type="line"/>
      <point x="1457" y="606" type="line" smooth="yes"/>
      <point x="1457" y="979"/>
      <point x="1181" y="1227"/>
      <point x="768" y="1227" type="curve" smooth="yes"/>
      <point x="356" y="1227"/>
      <point x="82" y="979"/>
      <point x="82" y="606" type="curve" smooth="yes"/>
      <point x="82" y="226"/>
      <point x="356" y="-10"/>
      <point x="768" y="-10" type="curve" smooth="yes"/>
      <point x="982" y="-10"/>
      <point x="1191" y="86"/>
      <point x="1315" y="230" type="curve"/>
      <point x="1214" y="230" type="line"/>
      <point x="1105" y="116"/>
      <point x="951" y="46"/>
      <point x="771" y="46" type="curve" smooth="yes"/>
      <point x="593" y="46"/>
      <point x="455" y="97"/>
      <point x="352" y="204" type="curve" smooth="yes"/>
      <point x="339" y="218"/>
      <point x="333" y="231"/>
      <point x="333" y="244" type="curve" smooth="yes"/>
      <point x="333" y="574" type="line" smooth="yes"/>
      <point x="333" y="579"/>
      <point x="337" y="581"/>
    </contour>
    <contour>
      <point x="1207" y="983" type="curve"/>
      <point x="1207" y="647" type="line" smooth="yes"/>
      <point x="1207" y="640"/>
      <point x="1204" y="637"/>
      <point x="1197" y="637" type="curve" smooth="yes"/>
      <point x="344" y="637" type="line" smooth="yes"/>
      <point x="337" y="637"/>
      <point x="333" y="640"/>
      <point x="333" y="647" type="curve" smooth="yes"/>
      <point x="333" y="976" type="line" smooth="yes"/>
      <point x="333" y="990"/>
      <point x="340" y="1007"/>
      <point x="352" y="1020" type="curve" smooth="yes"/>
      <point x="434" y="1104"/>
      <point x="603" y="1178"/>
      <point x="771" y="1178" type="curve" smooth="yes"/>
      <point x="936" y="1178"/>
      <point x="1091" y="1129"/>
      <point x="1187" y="1025" type="curve" smooth="yes"/>
      <point x="1200" y="1011"/>
      <point x="1207" y="998"/>
    </contour>
  </outline>
</glyph>
<glyph name="partialdiff" format="2">
  <advance width="1474"/>
  <unicode hex="2202"/>
  <outline>
    <contour>
      <point x="400" y="1278" type="curve"/>
      <point x="325" y="958" type="line"/>
      <point x="412" y="981"/>
      <point x="494" y="992"/>
      <point x="586" y="992" type="curve" smooth="yes"/>
      <point x="845" y="992"/>
      <point x="978" y="894"/>
      <point x="978" y="661" type="curve"/>
      <point x="978" y="657"/>
      <point x="978" y="652"/>
      <point x="978" y="648" type="curve"/>
      <point x="978" y="428"/>
      <point x="903" y="278"/>
      <point x="669" y="278" type="curve" smooth="yes"/>
      <point x="524" y="278"/>
      <point x="468" y="331"/>
      <point x="468" y="410" type="curve" smooth="yes"/>
      <point x="468" y="412"/>
      <point x="468" y="415"/>
      <point x="468" y="417" type="curve" smooth="yes"/>
      <point x="468" y="480"/>
      <point x="507" y="546"/>
      <point x="688" y="546" type="curve" smooth="yes"/>
      <point x="807" y="546"/>
      <point x="908" y="503"/>
      <point x="961" y="441" type="curve"/>
      <point x="1024" y="590" type="line"/>
      <point x="968" y="590" type="line"/>
      <point x="932" y="733"/>
      <point x="799" y="822"/>
      <point x="552" y="822" type="curve" smooth="yes"/>
      <point x="254" y="822"/>
      <point x="64" y="670"/>
      <point x="64" y="406" type="curve" smooth="yes"/>
      <point x="64" y="402"/>
      <point x="64" y="397"/>
      <point x="64" y="393" type="curve" smooth="yes"/>
      <point x="64" y="99"/>
      <point x="269" y="-45"/>
      <point x="658" y="-45" type="curve" smooth="yes"/>
      <point x="1125" y="-45"/>
      <point x="1384" y="222"/>
      <point x="1384" y="639" type="curve"/>
      <point x="1384" y="647"/>
      <point x="1384" y="655"/>
      <point x="1384" y="663" type="curve"/>
      <point x="1384" y="1105"/>
      <point x="1123" y="1311"/>
      <point x="700" y="1311" type="curve" smooth="yes"/>
      <point x="620" y="1311"/>
      <point x="493" y="1303"/>
    </contour>
  </outline>
</glyph>
<glyph name="emptyset" format="2">
  <advance width="1513"/>
  <unicode hex="2205"/>
  <outline>
    <contour>
      <point x="139" y="-110" type="line"/>
      <point x="472" y="-110" type="line"/>
      <point x="1350" y="1239" type="line"/>
      <point x="1017" y="1239" type="line"/>
    </contour>
    <contour>
      <point x="755" y="-39" type="curve"/>
      <point x="1161" y="-39"/>
      <point x="1431" y="198"/>
      <point x="1431" y="553" type="curve" smooth="yes"/>
      <point x="1431" y="576" type="line" smooth="yes"/>
      <point x="1431" y="931"/>
      <point x="1161" y="1168"/>
      <point x="755" y="1168" type="curve"/>
      <point x="351" y="1168"/>
      <point x="82" y="931"/>
      <point x="82" y="576" type="curve" smooth="yes"/>
      <point x="82" y="553" type="line" smooth="yes"/>
      <point x="82" y="198"/>
      <point x="351" y="-39"/>
    </contour>
    <contour>
      <point x="755" y="276" type="curve"/>
      <point x="579" y="276"/>
      <point x="461" y="387"/>
      <point x="461" y="553" type="curve"/>
      <point x="461" y="576" type="line"/>
      <point x="461" y="743"/>
      <point x="579" y="854"/>
      <point x="755" y="854" type="curve"/>
      <point x="933" y="854"/>
      <point x="1052" y="743"/>
      <point x="1052" y="576" type="curve"/>
      <point x="1052" y="553" type="line"/>
      <point x="1052" y="387"/>
      <point x="933" y="276"/>
    </contour>
  </outline>
</glyph>
<glyph name="increment" format="2">
  <advance width="1592"/>
  <unicode hex="2206"/>
  <outline>
    <contour>
      <point x="1210" y="107" type="line"/>
      <point x="1528" y="322" type="line"/>
      <point x="1020" y="1278" type="line"/>
      <point x="634" y="1278" type="line"/>
    </contour>
    <contour>
      <point x="64" y="322" type="line"/>
      <point x="64" y="0" type="line"/>
      <point x="891" y="0" type="line"/>
      <point x="891" y="322" type="line"/>
      <point x="338" y="322" type="line"/>
    </contour>
    <contour>
      <point x="382" y="107" type="line"/>
      <point x="958" y="1278" type="line"/>
      <point x="572" y="1278" type="line"/>
      <point x="64" y="322" type="line"/>
    </contour>
    <contour>
      <point x="1528" y="322" type="line"/>
      <point x="1254" y="322" type="line"/>
      <point x="683" y="322" type="line"/>
      <point x="683" y="0" type="line"/>
      <point x="1528" y="0" type="line"/>
    </contour>
  </outline>
</glyph>
<glyph name="product" format="2">
  <advance width="1409"/>
  <unicode hex="220F"/>
  <outline>
    <contour>
      <point x="1275" y="-185" type="line"/>
      <point x="1275" y="1278" type="line"/>
      <point x="134" y="1278" type="line"/>
      <point x="134" y="-185" type="line"/>
      <point x="540" y="-185" type="line"/>
      <point x="540" y="1093" type="line"/>
      <point x="402" y="961" type="line"/>
      <point x="1019" y="961" type="line"/>
      <point x="869" y="1092" type="line"/>
      <point x="869" y="-185" type="line"/>
    </contour>
  </outline>
</glyph>
<glyph name="summation" format="2">
  <advance width="1321"/>
  <unicode hex="2211"/>
  <outline>
    <contour>
      <point x="64" y="988" type="line"/>
      <point x="321" y="961" type="line"/>
      <point x="1235" y="961" type="line"/>
      <point x="1235" y="1278" type="line"/>
      <point x="64" y="1278" type="line"/>
    </contour>
    <contour>
      <point x="64" y="-185" type="line"/>
      <point x="1235" y="-185" type="line"/>
      <point x="1235" y="132" type="line"/>
      <point x="288" y="132" type="line"/>
      <point x="64" y="110" type="line"/>
    </contour>
    <contour>
      <point x="619" y="563" type="line"/>
      <point x="619" y="540" type="line"/>
      <point x="64" y="110" type="line"/>
      <point x="364" y="-74" type="line"/>
      <point x="1042" y="429" type="line"/>
      <point x="1042" y="671" type="line"/>
      <point x="364" y="1170" type="line"/>
      <point x="64" y="988" type="line"/>
    </contour>
  </outline>
</glyph>
<glyph name="radical" format="2">
  <advance width="1554"/>
  <unicode hex="221A"/>
  <outline>
    <contour>
      <point x="439" y="-265" type="line"/>
      <point x="817" y="-265" type="line"/>
      <point x="1674" y="1349" type="line"/>
      <point x="1302" y="1349" type="line"/>
    </contour>
    <contour>
      <point x="287" y="-265" type="line"/>
      <point x="799" y="-265" type="line"/>
      <point x="557" y="-59" type="line"/>
      <point x="532" y="-59" type="line"/>
      <point x="395" y="335" type="line"/>
      <point x="60" y="335" type="line"/>
    </contour>
  </outline>
</glyph>
<glyph name="infinity" format="2">
  <advance width="2002"/>
  <unicode hex="221E"/>
  <outline>
    <contour>
      <point x="68" y="498" type="line" smooth="yes"/>
      <point x="68" y="204"/>
      <point x="258" y="46"/>
      <point x="542" y="46" type="curve" smooth="yes"/>
      <point x="745" y="46"/>
      <point x="904" y="138"/>
      <point x="999" y="267" type="curve"/>
      <point x="1013" y="267" type="line"/>
      <point x="1013" y="732" type="line"/>
      <point x="999" y="732" type="line"/>
      <point x="881" y="860"/>
      <point x="744" y="953"/>
      <point x="542" y="953" type="curve" smooth="yes"/>
      <point x="261" y="953"/>
      <point x="68" y="797"/>
      <point x="68" y="506" type="curve" smooth="yes"/>
    </contour>
    <contour>
      <point x="428" y="501" type="curve"/>
      <point x="428" y="503" type="line"/>
      <point x="429" y="597"/>
      <point x="491" y="651"/>
      <point x="594" y="651" type="curve" smooth="yes"/>
      <point x="710" y="651"/>
      <point x="792" y="587"/>
      <point x="841" y="501" type="curve"/>
      <point x="787" y="418"/>
      <point x="720" y="348"/>
      <point x="604" y="348" type="curve" smooth="yes"/>
      <point x="494" y="348"/>
      <point x="428" y="405"/>
    </contour>
    <contour>
      <point x="1934" y="498" type="curve" smooth="yes"/>
      <point x="1934" y="506" type="line" smooth="yes"/>
      <point x="1934" y="797"/>
      <point x="1740" y="953"/>
      <point x="1460" y="953" type="curve" smooth="yes"/>
      <point x="1258" y="953"/>
      <point x="1121" y="860"/>
      <point x="1003" y="732" type="curve"/>
      <point x="989" y="732" type="line"/>
      <point x="989" y="267" type="line"/>
      <point x="1003" y="267" type="line"/>
      <point x="1098" y="138"/>
      <point x="1257" y="46"/>
      <point x="1460" y="46" type="curve" smooth="yes"/>
      <point x="1743" y="46"/>
      <point x="1934" y="204"/>
    </contour>
    <contour>
      <point x="1574" y="501" type="line"/>
      <point x="1574" y="405"/>
      <point x="1508" y="348"/>
      <point x="1398" y="348" type="curve" smooth="yes"/>
      <point x="1282" y="348"/>
      <point x="1215" y="418"/>
      <point x="1161" y="501" type="curve"/>
      <point x="1210" y="587"/>
      <point x="1292" y="651"/>
      <point x="1408" y="651" type="curve" smooth="yes"/>
      <point x="1511" y="651"/>
      <point x="1573" y="597"/>
      <point x="1574" y="503" type="curve"/>
    </contour>
  </outline>
</glyph>
<glyph name="integral" format="2">
  <advance width="803"/>
  <unicode hex="222B"/>
  <outline>
    <contour>
      <point x="-115" y="-62" type="curve"/>
      <point x="-93" y="-335" type="line"/>
      <point x="-46" y="-346"/>
      <point x="7" y="-353"/>
      <point x="60" y="-353" type="curve" smooth="yes"/>
      <point x="425" y="-353"/>
      <point x="533" y="-207"/>
      <point x="556" y="91" type="curve"/>
      <point x="619" y="898" type="line"/>
      <point x="628" y="1008"/>
      <point x="666" y="1056"/>
      <point x="833" y="1056" type="curve" smooth="yes"/>
      <point x="863" y="1056"/>
      <point x="891" y="1055"/>
      <point x="918" y="1053" type="curve"/>
      <point x="896" y="1326" type="line"/>
      <point x="849" y="1337"/>
      <point x="796" y="1344"/>
      <point x="743" y="1344" type="curve" smooth="yes"/>
      <point x="378" y="1344"/>
      <point x="270" y="1198"/>
      <point x="247" y="900" type="curve"/>
      <point x="184" y="93" type="line"/>
      <point x="175" y="-17"/>
      <point x="137" y="-65"/>
      <point x="-30" y="-65" type="curve" smooth="yes"/>
      <point x="-60" y="-65"/>
      <point x="-88" y="-64"/>
    </contour>
  </outline>
</glyph>
<glyph name="notequal" format="2">
  <advance width="1342"/>
  <unicode hex="2260"/>
  <outline>
    <contour>
      <point x="222" y="10" type="line"/>
      <point x="557" y="10" type="line"/>
      <point x="1101" y="1192" type="line"/>
      <point x="772" y="1192" type="line"/>
    </contour>
    <component base="equal" yOffset="1"/>
  </outline>
</glyph>
<glyph name="lessequal" format="2">
  <advance width="1345"/>
  <unicode hex="2264"/>
  <outline>
    <contour>
      <point x="1220" y="372" type="line"/>
      <point x="1220" y="686" type="line"/>
      <point x="381" y="766" type="line"/>
      <point x="381" y="789" type="line"/>
      <point x="1220" y="864" type="line"/>
      <point x="1220" y="1176" type="line"/>
      <point x="128" y="1027" type="line"/>
      <point x="128" y="525" type="line"/>
    </contour>
    <contour>
      <point x="125" y="2" type="line"/>
      <point x="1217" y="2" type="line"/>
      <point x="1217" y="304" type="line"/>
      <point x="125" y="304" type="line"/>
    </contour>
  </outline>
</glyph>
<glyph name="greaterequal" format="2">
  <advance width="1345"/>
  <unicode hex="2265"/>
  <outline>
    <contour>
      <point x="125" y="372" type="line"/>
      <point x="1217" y="525" type="line"/>
      <point x="1217" y="1027" type="line"/>
      <point x="125" y="1176" type="line"/>
      <point x="125" y="864" type="line"/>
      <point x="964" y="789" type="line"/>
      <point x="964" y="766" type="line"/>
      <point x="125" y="686" type="line"/>
    </contour>
    <contour>
      <point x="1220" y="2" type="line"/>
      <point x="1220" y="304" type="line"/>
      <point x="128" y="304" type="line"/>
      <point x="128" y="2" type="line"/>
    </contour>
  </outline>
</glyph>
<glyph name="lozenge" format="2">
  <advance width="1392"/>
  <unicode hex="25CA"/>
  <outline>
    <contour>
      <point x="307" y="496" type="line"/>
      <point x="888" y="1278" type="line"/>
      <point x="482" y="1278" type="line"/>
      <point x="81" y="751" type="line"/>
      <point x="81" y="526" type="line"/>
    </contour>
    <contour>
      <point x="288" y="834" type="line"/>
      <point x="81" y="526" type="line"/>
      <point x="482" y="0" type="line"/>
      <point x="888" y="0" type="line"/>
    </contour>
    <contour>
      <point x="1085" y="496" type="line"/>
      <point x="1311" y="526" type="line"/>
      <point x="1311" y="751" type="line"/>
      <point x="910" y="1278" type="line"/>
      <point x="504" y="1278" type="line"/>
    </contour>
    <contour>
      <point x="1104" y="834" type="line"/>
      <point x="504" y="0" type="line"/>
      <point x="910" y="0" type="line"/>
      <point x="1311" y="526" type="line"/>
    </contour>
  </outline>
</glyph>
<glyph name="leftanglebracketmath" format="2">
  <advance width="852"/>
  <unicode hex="27E8"/>
  <outline>
    <contour>
      <point x="488" y="541" type="line"/>
      <point x="842" y="1348" type="line"/>
      <point x="463" y="1348" type="line"/>
      <point x="120" y="576" type="line"/>
      <point x="120" y="532" type="line"/>
      <point x="463" y="-263" type="line"/>
      <point x="842" y="-263" type="line"/>
    </contour>
  </outline>
</glyph>
<glyph name="rightanglebracketmath" format="2">
  <advance width="852"/>
  <unicode hex="27E9"/>
  <outline>
    <contour>
      <point x="364" y="541" type="line"/>
      <point x="10" y="-263" type="line"/>
      <point x="389" y="-263" type="line"/>
      <point x="732" y="532" type="line"/>
      <point x="732" y="576" type="line"/>
      <point x="389" y="1348" type="line"/>
      <point x="10" y="1348" type="line"/>
    </contour>
  </outline>
</glyph>
<glyph name="__hookabovecombsmall.case" format="2">
  <advance width="614"/>
  <anchor x="225" y="963" name="_top"/>
  <outline>
    <contour>
      <point x="188" y="1016" type="curve"/>
      <point x="156" y="1172" type="line"/>
      <point x="238" y="1187"/>
      <point x="266" y="1199"/>
      <point x="266" y="1230" type="curve" smooth="yes"/>
      <point x="266" y="1251"/>
      <point x="251" y="1261"/>
      <point x="212" y="1261" type="curve" smooth="yes"/>
      <point x="180" y="1261"/>
      <point x="146" y="1254"/>
      <point x="115" y="1245" type="curve"/>
      <point x="128" y="1406" type="line"/>
      <point x="172" y="1420"/>
      <point x="226" y="1430"/>
      <point x="296" y="1430" type="curve" smooth="yes"/>
      <point x="431" y="1430"/>
      <point x="514" y="1370"/>
      <point x="514" y="1251" type="curve" smooth="yes"/>
      <point x="514" y="1109"/>
      <point x="400" y="1039"/>
    </contour>
  </outline>
</glyph>
<glyph name="__hookabovecombsmall" format="2">
  <advance width="614"/>
  <anchor x="225" y="963" name="_top"/>
  <outline>
    <contour>
      <point x="188" y="1017" type="curve"/>
      <point x="156" y="1173" type="line"/>
      <point x="238" y="1188"/>
      <point x="266" y="1200"/>
      <point x="266" y="1231" type="curve" smooth="yes"/>
      <point x="266" y="1252"/>
      <point x="251" y="1262"/>
      <point x="212" y="1262" type="curve" smooth="yes"/>
      <point x="180" y="1262"/>
      <point x="146" y="1255"/>
      <point x="115" y="1246" type="curve"/>
      <point x="128" y="1407" type="line"/>
      <point x="172" y="1421"/>
      <point x="226" y="1431"/>
      <point x="296" y="1431" type="curve" smooth="yes"/>
      <point x="431" y="1431"/>
      <point x="514" y="1371"/>
      <point x="514" y="1252" type="curve" smooth="yes"/>
      <point x="514" y="1110"/>
      <point x="400" y="1040"/>
    </contour>
  </outline>
</glyph>
<glyph name="_acutecombsmall.case" format="2">
  <advance width="846"/>
  <anchor x="275" y="963" name="_top"/>
  <outline>
    <contour>
      <point x="309" y="1323" type="line"/>
      <point x="135" y="1057" type="line"/>
      <point x="135" y="1052" type="line"/>
      <point x="423" y="1052" type="line"/>
      <point x="654" y="1316" type="line"/>
      <point x="654" y="1323" type="line"/>
    </contour>
  </outline>
</glyph>
<glyph name="_acutecombsmall" format="2">
  <advance width="846"/>
  <anchor x="270" y="963" name="_top"/>
  <outline>
    <contour>
      <point x="314" y="1334" type="line"/>
      <point x="139" y="1058" type="line"/>
      <point x="139" y="1053" type="line"/>
      <point x="419" y="1053" type="line"/>
      <point x="655" y="1327" type="line"/>
      <point x="655" y="1334" type="line"/>
    </contour>
  </outline>
</glyph>
<glyph name="_gravecombsmall.case" format="2">
  <advance width="846"/>
  <anchor x="576" y="963" name="_top"/>
  <outline>
    <contour>
      <point x="537" y="1323" type="line"/>
      <point x="192" y="1323" type="line"/>
      <point x="192" y="1316" type="line"/>
      <point x="423" y="1052" type="line"/>
      <point x="711" y="1052" type="line"/>
      <point x="711" y="1057" type="line"/>
    </contour>
  </outline>
</glyph>
<glyph name="_gravecombsmall" format="2">
  <advance width="846"/>
  <anchor x="576" y="963" name="_top"/>
  <outline>
    <contour>
      <point x="532" y="1334" type="line"/>
      <point x="191" y="1334" type="line"/>
      <point x="191" y="1327" type="line"/>
      <point x="427" y="1053" type="line"/>
      <point x="707" y="1053" type="line"/>
      <point x="707" y="1058" type="line"/>
    </contour>
  </outline>
</glyph>
<glyph name="_tildecombsmall.case" format="2">
  <advance width="1028"/>
  <anchor x="514" y="963" name="_top"/>
  <outline>
    <contour>
      <point x="666" y="1077" type="curve" smooth="yes"/>
      <point x="854" y="1077"/>
      <point x="915" y="1183"/>
      <point x="915" y="1333" type="curve" smooth="yes"/>
      <point x="915" y="1361" type="line"/>
      <point x="703" y="1361" type="line"/>
      <point x="703" y="1361" type="line"/>
      <point x="702" y="1321"/>
      <point x="688" y="1299"/>
      <point x="643" y="1299" type="curve" smooth="yes"/>
      <point x="573" y="1299"/>
      <point x="479" y="1348"/>
      <point x="360" y="1348" type="curve" smooth="yes"/>
      <point x="174" y="1348"/>
      <point x="113" y="1241"/>
      <point x="113" y="1095" type="curve" smooth="yes"/>
      <point x="113" y="1063" type="line"/>
      <point x="324" y="1063" type="line"/>
      <point x="324" y="1063" type="line"/>
      <point x="325" y="1105"/>
      <point x="339" y="1125"/>
      <point x="383" y="1125" type="curve" smooth="yes"/>
      <point x="455" y="1125"/>
      <point x="550" y="1077"/>
    </contour>
  </outline>
</glyph>
<glyph name="_tildecombsmall" format="2">
  <advance width="1028"/>
  <anchor x="514" y="963" name="_top"/>
  <outline>
    <contour>
      <point x="663" y="1075" type="curve" smooth="yes"/>
      <point x="848" y="1075"/>
      <point x="907" y="1181"/>
      <point x="907" y="1331" type="curve" smooth="yes"/>
      <point x="907" y="1359" type="line"/>
      <point x="695" y="1359" type="line"/>
      <point x="695" y="1359" type="line"/>
      <point x="694" y="1318"/>
      <point x="680" y="1297"/>
      <point x="636" y="1297" type="curve" smooth="yes"/>
      <point x="568" y="1297"/>
      <point x="477" y="1346"/>
      <point x="363" y="1346" type="curve" smooth="yes"/>
      <point x="180" y="1346"/>
      <point x="121" y="1238"/>
      <point x="121" y="1093" type="curve" smooth="yes"/>
      <point x="121" y="1061" type="line"/>
      <point x="332" y="1061" type="line"/>
      <point x="332" y="1061" type="line"/>
      <point x="333" y="1104"/>
      <point x="347" y="1123"/>
      <point x="389" y="1123" type="curve" smooth="yes"/>
      <point x="459" y="1123"/>
      <point x="552" y="1075"/>
    </contour>
  </outline>
</glyph>
<glyph name="brevecomb.case" format="2">
  <anchor x="509" y="1278" name="_top"/>
  <anchor x="509" y="1669" name="top"/>
  <outline>
    <contour>
      <point x="508" y="1376" type="curve" smooth="yes"/>
      <point x="792" y="1376"/>
      <point x="899" y="1496"/>
      <point x="908" y="1690" type="curve"/>
      <point x="654" y="1690" type="line"/>
      <point x="645" y="1626"/>
      <point x="597" y="1589"/>
      <point x="508" y="1589" type="curve" smooth="yes"/>
      <point x="416" y="1589"/>
      <point x="372" y="1629"/>
      <point x="363" y="1690" type="curve"/>
      <point x="109" y="1690" type="line"/>
      <point x="118" y="1496"/>
      <point x="229" y="1376"/>
    </contour>
  </outline>
</glyph>
<glyph name="brevecomb.narrow" format="2">
  <anchor x="509" y="963" name="_top"/>
  <anchor x="509" y="1374" name="top"/>
  <outline>
    <contour>
      <point x="510" y="1062" type="curve" smooth="yes"/>
      <point x="747" y="1062"/>
      <point x="846" y="1186"/>
      <point x="855" y="1378" type="curve"/>
      <point x="614" y="1378" type="line"/>
      <point x="611" y="1316"/>
      <point x="579" y="1276"/>
      <point x="510" y="1276" type="curve" smooth="yes"/>
      <point x="439" y="1276"/>
      <point x="411" y="1316"/>
      <point x="407" y="1378" type="curve"/>
      <point x="166" y="1378" type="line"/>
      <point x="174" y="1186"/>
      <point x="273" y="1062"/>
    </contour>
  </outline>
</glyph>
<glyph name="brevecomb_tildecomb.case" format="2">
  <anchor x="509" y="1278" name="_top"/>
  <anchor x="509" y="1669" name="top"/>
  <outline>
    <contour>
      <point x="658" y="1780" type="curve" smooth="yes"/>
      <point x="842" y="1780"/>
      <point x="902" y="1884"/>
      <point x="902" y="2031" type="curve" smooth="yes"/>
      <point x="902" y="2059" type="line"/>
      <point x="694" y="2059" type="line"/>
      <point x="694" y="2059" type="line"/>
      <point x="693" y="2020"/>
      <point x="679" y="1998"/>
      <point x="635" y="1998" type="curve" smooth="yes"/>
      <point x="567" y="1998"/>
      <point x="474" y="2046"/>
      <point x="358" y="2046" type="curve" smooth="yes"/>
      <point x="176" y="2046"/>
      <point x="116" y="1941"/>
      <point x="116" y="1798" type="curve" smooth="yes"/>
      <point x="116" y="1767" type="line"/>
      <point x="323" y="1767" type="line"/>
      <point x="323" y="1767" type="line"/>
      <point x="324" y="1808"/>
      <point x="337" y="1828"/>
      <point x="380" y="1828" type="curve" smooth="yes"/>
      <point x="451" y="1828"/>
      <point x="544" y="1780"/>
    </contour>
    <component base="brevecomb.case"/>
  </outline>
</glyph>
<glyph name="brevecomb_tildecomb" format="2">
  <anchor x="509" y="963" name="_top"/>
  <anchor x="509" y="1374" name="top"/>
  <outline>
    <contour>
      <point x="655" y="1484" type="curve" smooth="yes"/>
      <point x="836" y="1484"/>
      <point x="894" y="1587"/>
      <point x="894" y="1734" type="curve" smooth="yes"/>
      <point x="894" y="1762" type="line"/>
      <point x="686" y="1762" type="line"/>
      <point x="686" y="1762" type="line"/>
      <point x="685" y="1722"/>
      <point x="671" y="1701"/>
      <point x="628" y="1701" type="curve" smooth="yes"/>
      <point x="562" y="1701"/>
      <point x="472" y="1749"/>
      <point x="361" y="1749" type="curve" smooth="yes"/>
      <point x="181" y="1749"/>
      <point x="124" y="1643"/>
      <point x="124" y="1501" type="curve" smooth="yes"/>
      <point x="124" y="1470" type="line"/>
      <point x="330" y="1470" type="line"/>
      <point x="330" y="1470" type="line"/>
      <point x="331" y="1512"/>
      <point x="345" y="1531"/>
      <point x="386" y="1531" type="curve" smooth="yes"/>
      <point x="455" y="1531"/>
      <point x="546" y="1484"/>
    </contour>
    <component base="brevecomb"/>
  </outline>
</glyph>
<glyph name="breveinvertedcomb.case" format="2">
  <anchor x="509" y="1278" name="_top"/>
  <anchor x="508" y="1669" name="top"/>
  <outline>
    <contour>
      <point x="508" y="1712" type="curve" smooth="yes"/>
      <point x="229" y="1712"/>
      <point x="118" y="1592"/>
      <point x="109" y="1398" type="curve"/>
      <point x="363" y="1398" type="line"/>
      <point x="372" y="1459"/>
      <point x="416" y="1499"/>
      <point x="508" y="1499" type="curve" smooth="yes"/>
      <point x="597" y="1499"/>
      <point x="645" y="1462"/>
      <point x="654" y="1398" type="curve"/>
      <point x="908" y="1398" type="line"/>
      <point x="899" y="1592"/>
      <point x="792" y="1712"/>
    </contour>
  </outline>
</glyph>
<glyph name="breveinvertedcomb.narrow" format="2">
  <anchor x="508.5" y="963" name="_top"/>
  <anchor x="509" y="1374" name="top"/>
  <outline>
    <contour>
      <point x="510" y="1389" type="curve" smooth="yes"/>
      <point x="273" y="1389"/>
      <point x="174" y="1265"/>
      <point x="166" y="1073" type="curve"/>
      <point x="407" y="1073" type="line"/>
      <point x="411" y="1135"/>
      <point x="439" y="1175"/>
      <point x="510" y="1175" type="curve" smooth="yes"/>
      <point x="579" y="1175"/>
      <point x="611" y="1135"/>
      <point x="614" y="1073" type="curve"/>
      <point x="855" y="1073" type="line"/>
      <point x="846" y="1265"/>
      <point x="747" y="1389"/>
    </contour>
  </outline>
</glyph>
<glyph name="caroncomb.alt" format="2">
  <anchor x="80" y="1278" name="_topright"/>
  <outline>
    <contour>
      <point x="405" y="1278" type="curve"/>
      <point x="76" y="1278" type="line"/>
      <point x="80" y="1242"/>
      <point x="82" y="1211"/>
      <point x="82" y="1177" type="curve" smooth="yes"/>
      <point x="82" y="1047"/>
      <point x="64" y="943"/>
      <point x="32" y="846" type="curve"/>
      <point x="281" y="796" type="line"/>
      <point x="373" y="910"/>
      <point x="413" y="1037"/>
      <point x="413" y="1188" type="curve" smooth="yes"/>
      <point x="413" y="1219"/>
      <point x="409" y="1254"/>
    </contour>
  </outline>
</glyph>
<glyph name="caroncomb.case" format="2">
  <anchor x="541" y="1278" name="_top"/>
  <anchor x="541" y="1669" name="top"/>
  <outline>
    <contour>
      <point x="343" y="1398" type="line"/>
      <point x="739" y="1398" type="line"/>
      <point x="984" y="1681" type="line"/>
      <point x="984" y="1690" type="line"/>
      <point x="668" y="1690" type="line"/>
      <point x="546" y="1575" type="line"/>
      <point x="536" y="1575" type="line"/>
      <point x="414" y="1690" type="line"/>
      <point x="98" y="1690" type="line"/>
      <point x="98" y="1681" type="line"/>
    </contour>
  </outline>
</glyph>
<glyph name="circumflexcomb_tildecomb.case" format="2">
  <anchor x="546" y="1278" name="_top"/>
  <anchor x="546" y="1669" name="top"/>
  <outline>
    <contour>
      <point x="695" y="1780" type="curve" smooth="yes"/>
      <point x="879" y="1780"/>
      <point x="939" y="1884"/>
      <point x="939" y="2031" type="curve" smooth="yes"/>
      <point x="939" y="2059" type="line"/>
      <point x="731" y="2059" type="line"/>
      <point x="731" y="2059" type="line"/>
      <point x="730" y="2020"/>
      <point x="716" y="1998"/>
      <point x="672" y="1998" type="curve" smooth="yes"/>
      <point x="604" y="1998"/>
      <point x="511" y="2046"/>
      <point x="395" y="2046" type="curve" smooth="yes"/>
      <point x="213" y="2046"/>
      <point x="153" y="1941"/>
      <point x="153" y="1798" type="curve" smooth="yes"/>
      <point x="153" y="1767" type="line"/>
      <point x="360" y="1767" type="line"/>
      <point x="360" y="1767" type="line"/>
      <point x="361" y="1808"/>
      <point x="374" y="1828"/>
      <point x="417" y="1828" type="curve" smooth="yes"/>
      <point x="488" y="1828"/>
      <point x="581" y="1780"/>
    </contour>
    <component base="circumflexcomb.case"/>
  </outline>
</glyph>
<glyph name="circumflexcomb_tildecomb" format="2">
  <anchor x="531" y="963" name="_top"/>
  <anchor x="531" y="1370" name="top"/>
  <outline>
    <contour>
      <point x="677" y="1480" type="curve" smooth="yes"/>
      <point x="858" y="1480"/>
      <point x="916" y="1583"/>
      <point x="916" y="1730" type="curve" smooth="yes"/>
      <point x="916" y="1758" type="line"/>
      <point x="708" y="1758" type="line"/>
      <point x="708" y="1758" type="line"/>
      <point x="707" y="1718"/>
      <point x="693" y="1697"/>
      <point x="650" y="1697" type="curve" smooth="yes"/>
      <point x="584" y="1697"/>
      <point x="494" y="1745"/>
      <point x="383" y="1745" type="curve" smooth="yes"/>
      <point x="203" y="1745"/>
      <point x="146" y="1639"/>
      <point x="146" y="1497" type="curve" smooth="yes"/>
      <point x="146" y="1466" type="line"/>
      <point x="352" y="1466" type="line"/>
      <point x="352" y="1466" type="line"/>
      <point x="353" y="1508"/>
      <point x="367" y="1527"/>
      <point x="408" y="1527" type="curve" smooth="yes"/>
      <point x="477" y="1527"/>
      <point x="568" y="1480"/>
    </contour>
    <component base="circumflexcomb"/>
  </outline>
</glyph>
<glyph name="commaturnedabovecomb.case" format="2">
  <anchor x="287" y="1278" name="_top"/>
  <anchor x="301" y="1781" name="top"/>
  <outline>
    <contour>
      <point x="131" y="1397" type="curve"/>
      <point x="461" y="1397" type="line"/>
      <point x="458" y="1428"/>
      <point x="456" y="1454"/>
      <point x="456" y="1485" type="curve" smooth="yes"/>
      <point x="456" y="1602"/>
      <point x="476" y="1697"/>
      <point x="518" y="1784" type="curve"/>
      <point x="262" y="1835" type="line"/>
      <point x="164" y="1730"/>
      <point x="124" y="1620"/>
      <point x="124" y="1482" type="curve" smooth="yes"/>
      <point x="124" y="1455"/>
      <point x="127" y="1419"/>
    </contour>
  </outline>
</glyph>
<glyph name="dblgravecomb.case" format="2">
  <anchor x="696" y="1278" name="_top"/>
  <anchor x="513" y="1669" name="top"/>
  <outline>
    <contour>
      <point x="449" y="1690" type="line"/>
      <point x="100" y="1690" type="line"/>
      <point x="100" y="1681" type="line"/>
      <point x="343" y="1398" type="line"/>
      <point x="626" y="1398" type="line"/>
      <point x="626" y="1402" type="line"/>
    </contour>
    <contour>
      <point x="880" y="1690" type="line"/>
      <point x="534" y="1690" type="line"/>
      <point x="534" y="1681" type="line"/>
      <point x="769" y="1398" type="line"/>
      <point x="1055" y="1398" type="line"/>
      <point x="1055" y="1402" type="line"/>
    </contour>
  </outline>
</glyph>
<glyph name="dblgravecomb.narrow" format="2">
  <anchor x="691" y="963" name="_top"/>
  <anchor x="513" y="1376" name="top"/>
  <outline>
    <contour>
      <point x="524" y="1385" type="line"/>
      <point x="188" y="1385" type="line"/>
      <point x="188" y="1376" type="line"/>
      <point x="372" y="1073" type="line"/>
      <point x="647" y="1073" type="line"/>
      <point x="647" y="1077" type="line"/>
    </contour>
    <contour>
      <point x="926" y="1385" type="line"/>
      <point x="593" y="1385" type="line"/>
      <point x="593" y="1376" type="line"/>
      <point x="737" y="1073" type="line"/>
      <point x="1015" y="1073" type="line"/>
      <point x="1015" y="1077" type="line"/>
    </contour>
  </outline>
</glyph>
<glyph name="dotaccentcomb.case" format="2">
  <anchor x="302" y="1278" name="_top"/>
  <anchor x="300" y="1662" name="top"/>
  <outline>
    <contour>
      <point x="301" y="1388" type="curve" smooth="yes"/>
      <point x="434" y="1388"/>
      <point x="496" y="1452"/>
      <point x="496" y="1549" type="curve" smooth="yes"/>
      <point x="495.84" y="1554.52" type="line" smooth="yes"/>
      <point x="495.84" y="1653.4"/>
      <point x="434.4" y="1718.68"/>
      <point x="300.96" y="1718.68" type="curve" smooth="yes"/>
      <point x="169.44" y="1718.68"/>
      <point x="108" y="1653.4"/>
      <point x="108" y="1554.52" type="curve" smooth="yes"/>
      <point x="108" y="1549" type="line" smooth="yes"/>
      <point x="108" y="1452"/>
      <point x="169" y="1388"/>
    </contour>
  </outline>
</glyph>
<glyph name="dotbelowcomb.case" format="2">
  <anchor x="302" y="0" name="_bottom"/>
  <anchor x="302" y="-439" name="bottom"/>
  <outline>
    <contour>
      <point x="301" y="-425" type="curve" smooth="yes"/>
      <point x="434" y="-425"/>
      <point x="496" y="-361"/>
      <point x="496" y="-264" type="curve" smooth="yes"/>
      <point x="496" y="-258" type="line" smooth="yes"/>
      <point x="496" y="-160"/>
      <point x="434" y="-94"/>
      <point x="301" y="-94" type="curve" smooth="yes"/>
      <point x="169" y="-94"/>
      <point x="108" y="-160"/>
      <point x="108" y="-258" type="curve" smooth="yes"/>
      <point x="108" y="-264" type="line" smooth="yes"/>
      <point x="108" y="-361"/>
      <point x="169" y="-425"/>
    </contour>
  </outline>
</glyph>
<glyph name="horncomb.case" format="2">
  <anchor x="487" y="1278" name="_topright"/>
  <anchor x="570" y="1520" name="topright"/>
  <outline>
    <contour>
      <point x="194" y="1112" type="line"/>
      <point x="455" y="1149"/>
      <point x="568" y="1230"/>
      <point x="568" y="1412" type="curve" smooth="yes"/>
      <point x="568" y="1452"/>
      <point x="562" y="1491"/>
      <point x="552" y="1520" type="curve"/>
      <point x="219" y="1520" type="line"/>
      <point x="224" y="1493"/>
      <point x="228" y="1461"/>
      <point x="228" y="1431" type="curve" smooth="yes"/>
      <point x="228" y="1350"/>
      <point x="198" y="1294"/>
      <point x="100" y="1263" type="curve"/>
    </contour>
  </outline>
</glyph>
<glyph name="horncomb.case_O" format="2">
  <anchor x="15" y="1278" name="_topright"/>
  <anchor x="173" y="1520" name="topright"/>
  <outline>
    <contour>
      <point x="-238" y="1071" type="line"/>
      <point x="49" y="1114"/>
      <point x="171" y="1212"/>
      <point x="171" y="1412" type="curve" smooth="yes"/>
      <point x="171" y="1452"/>
      <point x="165" y="1491"/>
      <point x="155" y="1520" type="curve"/>
      <point x="-178" y="1520" type="line"/>
      <point x="-173" y="1493"/>
      <point x="-169" y="1461"/>
      <point x="-169" y="1431" type="curve" smooth="yes"/>
      <point x="-169" y="1349"/>
      <point x="-214" y="1291"/>
      <point x="-337" y="1253" type="curve"/>
    </contour>
  </outline>
</glyph>
<glyph name="horncomb_o" format="2">
  <anchor x="452" y="963" name="_topright"/>
  <anchor x="553" y="1205" name="topright"/>
  <outline>
    <contour>
      <point x="199" y="793" type="line"/>
      <point x="430" y="836"/>
      <point x="533" y="919"/>
      <point x="533" y="1097" type="curve" smooth="yes"/>
      <point x="533" y="1137"/>
      <point x="527" y="1176"/>
      <point x="517" y="1205" type="curve"/>
      <point x="184" y="1205" type="line"/>
      <point x="189" y="1178"/>
      <point x="193" y="1146"/>
      <point x="193" y="1116" type="curve" smooth="yes"/>
      <point x="193" y="1042"/>
      <point x="168" y="991"/>
      <point x="100" y="963" type="curve"/>
    </contour>
  </outline>
</glyph>
<glyph name="hungarumlautcomb.case" format="2">
  <anchor x="459" y="1278" name="_top"/>
  <anchor x="642" y="1669" name="top"/>
  <outline>
    <contour>
      <point x="706" y="1690" type="line"/>
      <point x="529" y="1402" type="line"/>
      <point x="529" y="1398" type="line"/>
      <point x="812" y="1398" type="line"/>
      <point x="1055" y="1681" type="line"/>
      <point x="1055" y="1690" type="line"/>
    </contour>
    <contour>
      <point x="275" y="1690" type="line"/>
      <point x="100" y="1402" type="line"/>
      <point x="100" y="1398" type="line"/>
      <point x="386" y="1398" type="line"/>
      <point x="621" y="1681" type="line"/>
      <point x="621" y="1690" type="line"/>
    </contour>
  </outline>
</glyph>
<glyph name="hungarumlautcomb.narrow" format="2">
  <anchor x="459" y="963" name="_top"/>
  <anchor x="637" y="1376" name="top"/>
  <outline>
    <contour>
      <point x="626" y="1385" type="line"/>
      <point x="503" y="1077" type="line"/>
      <point x="503" y="1073" type="line"/>
      <point x="778" y="1073" type="line"/>
      <point x="962" y="1376" type="line"/>
      <point x="962" y="1385" type="line"/>
    </contour>
    <contour>
      <point x="224" y="1385" type="line"/>
      <point x="135" y="1077" type="line"/>
      <point x="135" y="1073" type="line"/>
      <point x="413" y="1073" type="line"/>
      <point x="557" y="1376" type="line"/>
      <point x="557" y="1385" type="line"/>
    </contour>
  </outline>
</glyph>
<glyph name="periodcentered.loclCAT.case" format="2">
  <outline>
    <contour>
      <point x="-340" y="617" type="curve" smooth="yes"/>
      <point x="-205" y="617"/>
      <point x="-142" y="683"/>
      <point x="-142" y="784" type="curve" smooth="yes"/>
      <point x="-142" y="791" type="line" smooth="yes"/>
      <point x="-142" y="894"/>
      <point x="-205" y="962"/>
      <point x="-340" y="962" type="curve" smooth="yes"/>
      <point x="-472" y="962"/>
      <point x="-535" y="894"/>
      <point x="-535" y="791" type="curve" smooth="yes"/>
      <point x="-535" y="784" type="line" smooth="yes"/>
      <point x="-535" y="683"/>
      <point x="-472" y="617"/>
    </contour>
  </outline>
</glyph>
<glyph name="periodcentered.loclCAT" format="2">
  <advance width="236"/>
  <outline>
    <contour>
      <point x="117" y="544" type="curve" smooth="yes"/>
      <point x="242" y="544"/>
      <point x="300" y="610"/>
      <point x="300" y="711" type="curve" smooth="yes"/>
      <point x="300" y="718" type="line" smooth="yes"/>
      <point x="300" y="821"/>
      <point x="242" y="889"/>
      <point x="117" y="889" type="curve" smooth="yes"/>
      <point x="-6" y="889"/>
      <point x="-64" y="821"/>
      <point x="-64" y="718" type="curve" smooth="yes"/>
      <point x="-64" y="711" type="line" smooth="yes"/>
      <point x="-64" y="610"/>
      <point x="-6" y="544"/>
    </contour>
  </outline>
</glyph>
